<?xml version="1.0" encoding="UTF-8" standalone="no"?>
<!-- Created with Inkscape (http://www.inkscape.org/) -->

<svg
   width="210mm"
   height="297mm"
   viewBox="0 0 210 297"
   version="1.1"
   id="svg1"
   inkscape:version="1.4.4 (dcaf3e7, 2026-05-05)"
   sodipodi:docname="BWK LOGO.svg"
   xmlns:inkscape="http://www.inkscape.org/namespaces/inkscape"
   xmlns:sodipodi="http://sodipodi.sourceforge.net/DTD/sodipodi-0.dtd"
   xmlns="http://www.w3.org/2000/svg"
   xmlns:svg="http://www.w3.org/2000/svg">
  <sodipodi:namedview
     id="namedview1"
     pagecolor="#ffffff"
     bordercolor="#000000"
     borderopacity="0.25"
     inkscape:showpageshadow="2"
     inkscape:pageopacity="0.0"
     inkscape:pagecheckerboard="0"
     inkscape:deskcolor="#d1d1d1"
     inkscape:document-units="mm"
     inkscape:zoom="2.0989207"
     inkscape:cx="269.6624"
     inkscape:cy="407.114"
     inkscape:window-width="1920"
     inkscape:window-height="1051"
     inkscape:window-x="-9"
     inkscape:window-y="-9"
     inkscape:window-maximized="1"
     inkscape:current-layer="33d25a3dc0" />
  <defs
     id="defs1">
    <rect
       x="253.00489"
       y="404.26879"
       width="192.70145"
       height="17.181423"
       id="rect28" />
    <rect
       x="258.73203"
       y="406.62703"
       width="170.80357"
       height="15.49697"
       id="rect27" />
    <rect
       x="256.37379"
       y="406.96392"
       width="191.3539"
       height="16.507642"
       id="rect26" />
    <clipPath
       id="ccf93b696d">
      <path
         d="M0.796875 15 73 15 73 75.3281 0.796875 75.3281Z"
         id="path1" />
    </clipPath>
    <clipPath
       id="7527af9f57">
      <path
         d="M28 10.5 53 10.5 53 19 28 19Z"
         id="path2" />
    </clipPath>
    <clipPath
       id="e52869c1f2">
      <path
         d="M164.512 20.7266 180.16 20.7266 180.16 36.375 164.512 36.375Z"
         id="path3" />
    </clipPath>
  </defs>
  <g
     inkscape:label="Layer 1"
     inkscape:groupmode="layer"
     id="layer1">
    <g
       id="33d25a3dc0"
       transform="matrix(0.26458333,0,0,0.26458333,47.360417,96.572917)">
      <g
         id="g29"
         transform="translate(-16.675237,-14.769496)"
         style="fill:#ffffff">
        <g
           id="g4"
           clip-path="url(#ccf93b696d)"
           style="fill:#ffffff">
          <path
             d="m 37.7656,59.6758 c 0.0703,0.0625 0.1406,0.125 0.2149,0.1875 l 1.0468,-1.1758 -0.0546,-0.0469 c -0.4024,0.3477 -0.8047,0.6914 -1.2071,1.0352 m 2.1485,6.3515 c -0.1133,-0.0312 -0.2266,-0.0585 -0.3399,-0.0898 -0.0781,0.375 -0.1562,0.7461 -0.2344,1.1211 0.0782,0.0195 0.1602,0.043 0.2383,0.0625 0.1133,-0.3633 0.2266,-0.7266 0.336,-1.0938 m -1.7657,-3.914 c -0.0976,-0.0274 -0.1992,-0.0586 -0.3007,-0.0899 -0.0977,0.2735 -0.1993,0.5469 -0.3008,0.8243 0.1406,0.039 0.2812,0.082 0.4219,0.1211 0.0624,-0.2852 0.121,-0.5704 0.1796,-0.8555 M 48.4219,36.4492 c 0.0195,0.8672 0.2617,1.1602 1.0273,1.2735 0.1563,-0.6915 -0.1797,-1.125 -1.0273,-1.2735 M 46.3828,26.0781 c 0.9063,0.6016 2.2305,0.4571 2.7656,-0.1406 -0.9336,0.0508 -1.8515,0.0937 -2.7656,0.1406 M 70.4375,39.582 c -0.75,0.0938 -0.9648,0.5938 -0.7578,1.7735 0.6015,-0.4219 0.9219,-1.168 0.7578,-1.7735 M 49.2578,23.6875 c -1,0.4648 -1.8594,0.8672 -2.8047,1.3086 1.3477,0.1367 2.4531,-0.3399 2.8047,-1.3086 m -28.1953,9.6758 c -0.1289,-0.5742 -0.1953,-1.0156 -0.332,-1.4336 -0.0508,-0.1524 -0.2852,-0.375 -0.3907,-0.3555 -0.1796,0.0391 -0.4492,0.2383 -0.457,0.3789 -0.0312,0.4766 -0.0078,0.9688 0.0938,1.4336 0.039,0.1602 0.3711,0.3594 0.5625,0.3555 0.1914,-0.0078 0.3711,-0.2578 0.5234,-0.3789 m -3.4687,-2.4961 c 0.0585,0.6797 0.0742,1.3281 0.1835,1.957 0.0977,0.5742 0.6055,0.6992 1.0782,0.6328 0.1093,-0.0156 0.164,-0.5234 0.2148,-0.8086 0.0352,-0.1953 0.0547,-0.4062 0.0117,-0.5937 -0.2226,-0.9844 -0.207,-1.5508 -1.4882,-1.1875 m 3.082,-0.6602 c 0.0508,0.0821 0.1015,0.1602 0.1523,0.2422 0.2422,-0.0781 0.5,-0.1289 0.7266,-0.2422 1.1797,-0.5742 2.332,-1.2109 3.5312,-1.7422 1.8516,-0.8164 3.6485,-1.8632 5.7969,-1.6718 0.0625,0.0039 0.1328,-0.1172 0.2031,-0.1797 -1.0312,-0.0235 -2.0742,-0.0586 -2.9804,0.2734 -2.2891,0.836 -4.5196,1.8281 -6.7617,2.7813 -0.254,0.1054 -0.4493,0.3554 -0.668,0.539 m 9.75,-2.1679 c -0.6758,0.4414 -1.4414,0.5 -2.2461,0.2109 -0.1563,-0.0547 -0.3711,-0.0391 -0.5235,0.0234 -1.5624,0.6563 -3.121,1.3243 -4.6718,2.0039 -0.3438,0.1485 -0.4805,0.3907 -0.1953,0.7383 0.1562,0.1875 0.2343,0.4571 0.414,0.6016 0.2422,0.1836 0.543,0.375 0.8281,0.3945 0.4844,0.0274 0.9883,-0.0312 1.461,-0.1445 0.793,-0.1836 1.5664,-0.4375 2.3516,-0.6641 -0.0235,-0.0937 -0.0469,-0.1836 -0.0665,-0.2773 -1.2656,0.2304 -2.5351,0.4609 -3.8398,0.6953 -0.0117,-0.0508 -0.0117,-0.207 -0.0742,-0.3438 -0.3125,-0.6953 -0.2188,-0.8242 0.5312,-0.9648 0.9922,-0.1836 2.0391,-0.293 2.6836,-1.25 0.043,-0.0586 0.1914,-0.0469 0.2969,-0.0703 0.0508,0.2266 0.0898,0.4101 0.1367,0.6211 0.6172,-0.1367 1.3516,0.2773 1.7227,-0.5625 0.0312,-0.0742 0.3594,-0.0586 0.539,-0.0196 0.5782,0.1211 1.1289,0.1602 1.5625,-0.2773 -0.3086,-0.2422 -0.5937,-0.4648 -0.9101,-0.7148 m 24.0547,6.5 c 0.0468,0.0703 0.0898,0.1406 0.1328,0.2109 0.3437,-0.1289 0.7305,-0.2031 1.0273,-0.4062 0.6055,-0.4102 1.0782,-0.2188 1.5625,0.1953 0.4258,0.3593 0.8516,0.7187 1.3164,1.0234 0.5039,0.3281 0.711,0.2187 0.8125,-0.3789 0.0938,-0.5508 0.1836,-1.1055 0.1992,-1.6602 0.0079,-0.2656 -0.0976,-0.582 -0.2617,-0.789 -0.3711,-0.4805 -0.7304,-1.2656 -0.75,-1.8555 0,-0.0195 -0.0273,-0.0351 -0.1289,-0.1445 -1.3398,1.2344 -2.7968,2.3398 -3.9101,3.8047 m -5.2383,6.2031 c -0.0625,0.0117 -0.1211,0.0273 -0.1836,0.043 -0.0313,-0.9454 -0.375,-1.5782 -1.2148,-1.4727 -0.125,-0.418 -0.1563,-0.7773 -0.3321,-1.043 -0.2031,-0.3086 -0.582,-0.5 -0.7969,-0.8007 -0.5351,-0.75 -0.5429,-1.8008 -1.332,-2.4024 -0.1601,-0.125 -0.4766,-0.1758 -0.664,-0.1055 -0.1602,0.0625 -0.379,0.4063 -0.3321,0.5196 0.3594,0.832 0.7344,1.6718 1.1992,2.4453 0.4453,0.7422 0.9493,1.4648 1.5352,2.0937 0.3984,0.4336 1.0039,0.6641 1.4766,1.0352 0.7109,0.5625 1.1093,-0.0391 1.6015,-0.3594 0.1836,-0.1211 0.3906,-0.2265 0.5977,-0.293 0.4414,-0.1445 0.9062,-0.2461 1.1836,0.2735 0.2773,0.5195 0.2343,1.0351 -0.1524,1.5 -0.3672,0.4414 -0.7304,0.8789 -1.1093,1.3125 -0.0977,0.1133 -0.2305,0.1914 -0.2618,0.2148 C 50.1641,43 49.8984,42.3516 49.6133,41.6523 c -0.3633,0.7852 -0.6094,1.4454 -0.9531,2.0469 -0.5586,0.9688 -1.1954,1.8906 -1.7774,2.8477 -0.4297,0.707 -0.8555,1.4179 -1.2305,2.1523 -0.0859,0.1719 -0.0039,0.4649 0.0743,0.6719 0.0312,0.0898 0.3281,0.1875 0.375,0.1406 0.457,-0.4219 0.9179,-0.8515 1.3086,-1.332 0.1093,-0.1367 -0.043,-0.457 -0.0118,-0.6875 0.0157,-0.1524 0.1055,-0.3281 0.2188,-0.4336 0.7226,-0.6758 1.457,-1.3359 2.1992,-1.9922 0.1953,-0.1758 0.4219,-0.3242 0.6524,-0.4609 0.4101,-0.25 0.6953,-0.1875 0.871,0.3125 0.1954,0.5586 0.4727,1.0859 0.6641,1.6445 0.1211,0.3477 0.1563,0.7266 0.2305,1.0898 -0.0664,0.1446 0.125,0.2071 0.1562,0.3165 0.0469,0.1523 -0.1133,0.4023 -0.039,0.5 0.5195,0.6914 1.0117,1.4257 1.6484,1.9882 0.3555,0.3125 1.0469,0.5391 1.4727,0.0508 0.7812,-0.9062 1.4648,-1.8984 2.1992,-2.8711 -0.1094,-0.0429 -0.1485,-0.0742 -0.1875,-0.0742 -0.0664,0 -0.1367,0.0078 -0.1992,0.0313 -1.2735,0.4492 -2.3282,0.0546 -3.2422,-0.8516 -0.3516,-0.3477 -0.6719,-0.7227 -1.0274,-1.1094 0.0899,-0.0742 0.25,-0.207 0.418,-0.3476 -0.1797,-0.3047 -0.4531,-0.5664 -0.4648,-0.8399 -0.0274,-0.6758 0.0468,-1.3555 0.121,-2.0273 0.125,-1.1094 0.3243,-2.2149 0.4102,-3.3282 0.0625,-0.7968 0.0117,-1.6093 -0.0391,-2.4101 -0.0117,-0.1953 -0.2421,-0.5469 -0.3476,-0.5391 -0.2539,0.0235 -0.5781,0.1524 -0.7188,0.3516 -0.164,0.2383 -0.1757,0.5898 -0.2343,0.8945 -0.2071,1.1055 -0.8321,1.4883 -1.8829,1.0781 -0.5351,-0.207 -0.8125,-0.0742 -0.9101,0.461 -0.0625,0.3476 -0.0977,0.7031 -0.1211,1.0547 -0.0195,0.25 -0.0039,0.5078 -0.0039,0.7617 M 29.4727,66.2305 c 0.125,0.2031 0.2461,0.4023 0.4257,0.6953 0.4375,-0.711 0.2461,-1.1055 0.0039,-1.4844 -0.4101,-0.6484 -0.7578,-1.3125 -0.5585,-2.2578 0.375,0.1211 0.7539,0.2109 1.1015,0.3672 0.5742,0.25 1.0664,0.2344 1.6485,-0.082 0.8007,-0.4297 1.6953,-0.6876 2.5351,-1.043 0.3164,-0.1328 0.6016,-0.3281 0.9023,-0.4961 -0.0234,-0.0547 -0.0468,-0.1094 -0.0703,-0.1602 -0.1328,0.0235 -0.2851,0.0157 -0.3984,0.0782 -1.5664,0.875 -3.2852,0.6835 -4.9297,0.5273 -1.5898,-0.1523 -2.7461,-2.5312 -2.1133,-4.0039 0.0625,-0.1484 0.2774,-0.2617 0.4453,-0.3281 1.6368,-0.6641 2.3125,-2.3828 1.6836,-4.0274 -0.5625,-1.4804 -0.9726,-3.0195 -1.4922,-4.5195 -0.5117,-1.4805 -1.0156,-2.9688 -1.6445,-4.3984 -0.1875,-0.4297 -0.7383,-0.7579 -1.1953,-0.9922 -1.1641,-0.6016 -2.375,-1.1133 -3.5469,-1.6953 -0.1445,-0.0743 -0.2578,-0.3672 -0.25,-0.5547 0.0313,-0.8008 0.0743,-1.6094 0.1836,-2.4063 0.1485,-1.0859 -0.1367,-1.9414 -0.9375,-2.3984 -0.8359,-0.4766 -1.6367,-0.332 -2.3789,0.2422 -0.1055,0.0781 -0.2422,0.1953 -0.3437,0.1836 -1.2539,-0.1758 -2.1407,0.664 -3.1797,1.0976 -0.9414,0.3906 -1.961,0.6094 -2.8985,1.0196 -1.4843,0.6484 -2.99996,1 -4.63277,0.9062 -0.56641,-0.0352 -1.14453,0.1836 -1.72656,0.2227 -3.17969,0.2304 -4.61719,-1.2813 -5.308595,-4.3204 0.699215,0 1.378905,0.0079 2.058595,0 0.42187,-0.0039 0.86328,0.0469 1.25781,-0.0625 0.89063,-0.2539 1.71094,-0.1757 2.52734,0.2461 0.37891,0.1914 0.79688,0.3008 1.19141,0.461 0.39063,0.1562 0.67188,0.039 1.03516,-0.1992 0.52343,-0.3399 1.14451,-0.6133 1.75781,-0.7071 0.7422,-0.1133 1.5312,-0.0898 2.2773,0.0156 1.4141,0.1993 2.7149,-0.0195 3.9454,-0.7421 0.2656,-0.1563 0.5703,-0.2461 0.8593,-0.3633 -0.0117,0.0664 -0.0195,0.1367 -0.0312,0.2031 0.3437,0.1172 0.6758,0.3086 1.0234,0.3359 0.7149,0.0547 1.4375,0.0469 2.1524,0.0079 0.2773,-0.0118 0.6562,-0.1133 0.7812,-0.3086 0.1016,-0.1563 -0.0273,-0.625 -0.2031,-0.75 -0.1524,-0.1094 -0.5156,0.0507 -0.7774,0.1171 -0.1992,0.0547 -0.3867,0.1524 -0.582,0.2305 l -0.0859,-0.1758 c 0.3047,-0.1836 0.6094,-0.3671 0.914,-0.5507 -0.0078,-0.0313 -0.0117,-0.0625 -0.0156,-0.0938 -0.6211,0.1563 -1.2383,0.3477 -1.8711,0.457 -0.6406,0.1094 -1.3008,0.1954 -1.9531,0.1954 -0.6445,-0.004 -1.2891,-0.1329 -1.9336,-0.1954 -0.6602,-0.0664 -1.3164,-0.1211 -2.0078,-0.1836 0.414,-0.8867 0.9844,-1.1562 1.707,-0.8476 0.6055,0.2578 1.1016,-0.0703 1.5664,-0.3399 0.336,-0.1953 1.0235,-0.2539 0.8047,-0.8789 -0.2031,-0.5898 -0.8203,-0.3984 -1.2422,-0.3281 -1.1093,0.1875 -2.0859,0.6953 -2.9375,1.4414 -0.3476,0.3086 -0.7187,0.5821 -1.1172,0.8985 -0.1679,-0.6602 0.0039,-0.9922 0.5586,-1.2774 0.836,-0.4375 1.5977,-1.0156 2.3985,-1.5273 0.4179,-0.2657 0.8398,-0.5196 1.2734,-0.7657 0.6484,-0.371 1.3047,-0.7265 2.0742,-1.1562 -0.2851,-0.2344 -0.4414,-0.3672 -0.6875,-0.5742 1.8711,-1.5078 3.7422,-3.0313 5.6406,-4.5235 0.375,-0.2929 0.8516,-0.3984 1.2618,0.0235 -0.0235,0.0625 -0.0235,0.1289 -0.0508,0.1406 -1.0274,0.4336 -1.8594,1.1133 -2.6445,1.9102 -0.6524,0.664 -1.4493,1.1914 -2.1915,1.7734 -0.457,0.3594 -0.6015,0.7578 -0.0898,1.3476 0.4024,-0.2617 0.8672,-0.4804 1.2227,-0.8164 0.6132,-0.5859 1.1367,-1.2695 1.7421,-1.8671 0.375,-0.3672 0.7891,-0.793 1.2618,-0.9454 1.0625,-0.3359 2.1718,-0.5351 3.2695,-0.7461 0.1563,-0.0312 0.3594,0.1758 0.6875,0.3516 0.3125,-0.1016 0.8359,-0.1953 1.2773,-0.4375 0.2579,-0.1445 0.3829,-0.5273 0.5704,-0.8008 -0.2539,-0.1406 -0.4883,-0.332 -0.7579,-0.4062 -0.246,-0.0703 -0.5273,-0.0156 -0.7773,-0.0156 -0.1523,-1.125 0.8125,-2.2071 1.8164,-2.0704 0.1484,0.0196 0.3399,0.3165 0.3672,0.5079 0.0351,0.2265 -0.0352,0.5 -0.1406,0.7148 -0.3516,0.7266 0.1797,1.0117 0.6523,1.2734 0.1289,0.0743 0.4649,-0.0781 0.6172,-0.2226 0.8867,-0.8477 1.7148,-1.7617 2.625,-2.5899 3.0547,-2.7695 6.5156,-4.8671 10.4062,-6.25 0.0626,-0.0234 0.129,-0.0468 0.1915,-0.0586 0.3476,-0.0625 0.6914,-0.1211 1.0507,-0.1367 -1.3672,0.5821 -2.7617,1.1133 -4.0976,1.7656 -1.3086,0.6407 -2.586,1.3672 -3.5117,2.5235 1.0195,-0.5586 2.0664,-1.0781 3.0586,-1.6875 1.2851,-0.7891 2.5585,-1.5938 4.0585,-1.9063 0.4532,-0.0937 0.9219,-0.1406 1.3868,-0.1484 0.1367,-0.0039 0.3632,0.1875 0.3906,0.3203 0.0234,0.1211 -0.1445,0.3789 -0.2734,0.4141 -1.004,0.2929 -2.043,0.4922 -3.0313,0.8281 -1.0586,0.3594 -2.0742,0.832 -3.1055,1.2617 -0.0664,0.0313 -0.1093,0.1211 -0.125,0.2774 2.2188,-1.3047 4.8204,-1.1875 7.1407,-2.0743 0.0468,0.0508 0.0937,0.0977 0.1406,0.1485 -0.4766,0.4687 -0.918,0.9805 -1.4453,1.3789 -0.2149,0.1601 -0.625,0.1016 -0.9375,0.0781 -0.6094,-0.0547 -1.2344,-0.293 -1.8125,-0.2031 -0.9102,0.1406 -1.8242,0.418 -2.4727,1.1797 1.5313,1.8672 4.0508,1.9648 4.9922,0.0859 -0.4062,0.1836 -0.7031,0.3047 -0.9883,0.4492 -0.7734,0.3946 -1.5625,0.5742 -2.3789,0.1485 -0.2929,-0.1563 -0.8047,-0.2852 -0.5195,-0.7422 0.2266,-0.3672 0.6601,-0.625 1.1601,-0.3867 0.1993,0.0937 0.375,0.2304 0.6055,0.375 0.3984,-1.0313 1.168,-0.418 1.7852,-0.4219 0.2539,0 0.5117,0.2422 0.8984,0.4414 0.6211,-0.4258 1.5469,-0.7852 1.7148,-1.9219 0.0313,-0.2304 0.3868,-0.414 0.5938,-0.6211 0.0508,0.0313 0.1055,0.0625 0.1562,0.0938 -0.0585,0.4453 -0.1484,0.8906 -0.1679,1.3398 -0.043,1.086 0.2773,1.4688 1.3555,1.586 0.7343,0.0781 1.4765,0.082 2.2109,0.1328 0.2226,0.0156 0.4414,0.0703 0.8437,0.1367 -0.3437,0.2656 -0.5234,0.4023 -0.6953,0.539 0.3672,1.2032 -0.4297,2.0938 -0.8008,3.086 -0.0351,0.0898 -0.3203,0.164 -0.4492,0.1211 -0.4219,-0.1406 -0.6797,-0.8985 -0.6133,-1.3516 0.0391,-0.2773 -0.0351,-0.6836 -0.2187,-0.8594 -0.4609,-0.4414 -1,-0.8046 -1.5313,-1.1562 -0.1679,-0.1094 -0.4765,-0.1992 -0.621,-0.1172 -0.836,0.4492 -1.6446,0.9531 -2.461,1.4492 -0.082,0.0508 -0.1328,0.1641 -0.1445,0.4063 0.2539,-0.0586 0.5312,-0.0742 0.7617,-0.1875 0.5,-0.2461 0.9648,-0.5625 1.4688,-0.8047 0.1718,-0.0781 0.414,-0.0117 0.621,-0.0117 -0.0195,0.2031 0.0352,0.4804 -0.0781,0.5937 -1.1133,1.1289 -2.4375,1.8789 -3.9922,2.1602 -0.0625,-0.0469 -0.1289,-0.0977 -0.1914,-0.1446 0.1914,-0.4531 0.3711,-0.914 0.5821,-1.3554 0.25,-0.5235 0.1484,-0.8594 -0.3321,-0.9766 -0.2226,1.3164 -0.2461,1.332 -1.6953,1.3906 -0.2305,0.0078 -0.4609,0.0469 -0.6875,0.0743 -0.0039,0.0664 -0.0078,0.1328 -0.0117,0.1992 0.3516,0.0781 0.7148,0.1289 1.0547,0.2383 0.1836,0.0625 0.332,0.2304 0.4961,0.3476 -0.1524,0.1797 -0.2735,0.4024 -0.4649,0.5234 -0.1679,0.1133 -0.4062,0.1133 -0.5195,0.1407 0.082,0.4179 0.25,0.7812 0.1914,1.1093 -0.0742,0.4415 -0.4336,0.5977 -0.8789,0.3907 -0.2852,-0.1328 -0.5742,-0.25 -0.8633,-0.3828 -0.3945,-0.1797 -0.789,-0.3672 -0.8945,0.4609 -0.2774,-0.4805 -0.2461,-1.1367 -0.8711,-0.9062 -0.1602,0.5859 -0.3477,1.125 -0.4414,1.6835 -0.0313,0.168 0.1445,0.4688 0.3125,0.5625 0.6172,0.3555 1.2773,0.6368 1.9023,0.9766 0.2149,0.1172 0.3711,0.332 0.6289,0.5703 -0.2461,0.0899 -0.3671,0.1758 -0.4804,0.168 -1.9649,-0.0977 -3.9297,-0.2383 -5.8985,-0.3047 -0.7148,-0.0234 -0.9492,-0.3672 -0.9687,-0.9922 -0.0078,-0.3125 -0.0039,-0.6289 0.0078,-0.9414 0.0391,-0.9062 0.0469,-0.8125 0.9531,-0.875 0.9453,-0.0664 1.75,-0.4922 2.0078,-1.6406 -0.4687,-0.1524 -0.9492,-0.3125 -1.4297,-0.4649 -0.7031,-0.2265 -0.8945,-0.5312 -0.4921,-1.1328 0.4921,-0.7461 1.1289,-1.3984 1.6953,-2.0937 0.1562,-0.1914 0.2812,-0.4024 0.4218,-0.6016 -0.0507,-0.0508 -0.0976,-0.1055 -0.1484,-0.1562 -0.2617,0.1718 -0.5508,0.3125 -0.7851,0.5156 -0.6915,0.5976 -1.3711,1.2031 -2.0235,1.8437 -0.1758,0.1758 -0.332,0.4844 -0.3125,0.7188 0.0586,0.668 -0.3164,0.8398 -0.8516,0.9687 -0.5703,0.1328 -1.121,0.3477 -1.6757,0.5235 0.0039,0.082 0.0078,0.1679 0.0117,0.25 0.1875,0.0937 0.414,0.1484 0.5508,0.289 0.2226,0.2344 0.4101,0.5118 0.5742,0.793 0.0859,0.1445 0.082,0.3359 0.1406,0.5 0.0664,0.207 0.1563,0.4023 0.2344,0.6016 -0.2539,0.039 -0.5078,0.0781 -0.875,0.1328 0.0117,0.7578 -0.4922,1.582 -0.0703,2.5429 0.3047,0.6915 -0.4336,0.6446 -0.8711,0.8711 -0.0274,-0.1835 -0.043,-0.3164 -0.0703,-0.5234 -0.6602,0.332 -1.3047,0.6523 -2.0625,1.0352 v -0.6602 c -0.0703,-0.0234 -0.1407,-0.043 -0.211,-0.0664 -0.1445,0.3281 -0.289,0.6602 -0.4336,0.9883 0.0508,0.0273 0.1016,0.0586 0.1524,0.0859 -0.2344,0.1211 -0.4688,0.2383 -0.7031,0.3594 0.0039,0.0273 0.0078,0.0547 0.0117,0.082 0.1289,-0.0195 0.2617,-0.0195 0.3828,-0.0586 2.668,-0.8593 5.4375,-1.1015 8.207,-1.3281 1.1367,-0.0976 2.2774,-0.1719 3.4141,-0.2734 0.9883,-0.0899 1.75,-0.5274 2.1289,-1.4922 0.4492,-1.1406 0.8945,-2.2813 1.3203,-3.4297 0.1914,-0.5117 0.4414,-0.8008 1.0781,-0.7461 0.4102,0.0312 0.8516,-0.1875 1.2656,-0.332 0.625,-0.2188 1.2461,-0.4571 1.8555,-0.7188 0.3164,-0.1367 0.625,-0.3125 0.8985,-0.5234 0.7382,-0.5664 1.2109,-0.4531 1.4882,0.4336 0.1133,0.3594 0.1797,0.7461 0.1954,1.125 0.0312,0.7148 0.039,1.4336 0.0039,2.1484 C 50.3086,27.2422 49.7969,27.6914 48.9688,27.5 47.7734,27.2305 46.6016,26.8555 45.4219,26.5234 44.9492,26.3906 44.4805,26.2266 44,26.1328 c -0.1523,-0.0273 -0.4492,0.086 -0.4961,0.207 -0.168,0.4297 -0.3008,0.8829 -0.3633,1.3399 -0.0468,0.332 0.125,0.5351 0.5274,0.6289 0.7109,0.1602 1.3945,0.4414 2.0898,0.6719 -0.0117,0.0703 -0.0234,0.1406 -0.0351,0.2109 -0.5508,-0.043 -1.1055,-0.0625 -1.6563,-0.1367 -0.7695,-0.1055 -1.4609,-0.1133 -2.1289,0.4648 -0.5391,0.4649 -1.25,0.7344 -2.0234,1.168 0.3164,0.0781 0.5117,0.1445 0.7109,0.1719 1.8867,0.2539 3.7734,0.5156 5.6641,0.7304 0.2656,0.0313 0.625,-0.1015 0.8281,-0.2851 1.9609,-1.7735 3.9023,-3.5664 5.8398,-5.3633 0.9922,-0.9258 1.9375,-1.8984 2.9571,-2.7969 0.2851,-0.25 0.8164,-0.2265 1.1054,-0.4765 0.543,-0.4649 0.9336,-0.5469 1.5274,-0.0352 0.2539,0.2188 0.8164,0.1133 1.2383,0.0938 0.1757,-0.0039 0.3476,-0.1602 0.6406,-0.1641 -0.1211,0.2148 -0.2422,0.4258 -0.3555,0.6406 -0.1015,0.2031 -0.1914,0.4141 -0.2851,0.6211 0.2148,0.0547 0.4296,0.1094 0.6914,0.1758 -0.0743,0.2031 -0.2344,0.4453 -0.2227,0.6836 0.0078,0.1992 0.2188,0.3867 0.3906,0.6602 -0.6211,0.7226 -0.4336,1.539 -0.0547,2.375 0.086,0.1835 0.0547,0.4374 0.0274,0.6523 -0.4102,3.1094 -0.8242,6.2148 -1.2422,9.3203 -0.1367,1.0195 -0.2852,2.0391 -0.4258,3.0586 -0.0156,0.1094 -0.0508,0.2188 -0.0469,0.332 0.0352,0.7539 0.0743,1.5118 0.1172,2.3438 -0.0976,-0.0469 -0.0429,-0.0039 -0.0273,-0.0156 0.8672,-0.6954 1.8086,-1.3164 2.4844,-2.2227 0.1757,-0.2344 0.3086,-0.5508 0.3398,-0.8437 0.1172,-1.1094 0.1836,-2.2266 0.2656,-3.3399 0.0157,-0.2109 0,-0.4258 0,-0.6406 -0.0664,-0.0391 -0.1367,-0.0821 -0.207,-0.125 -0.5234,0.5078 -1.043,1.0156 -1.6016,1.5586 -0.1914,-1.2266 3.5782,-5.6328 5.5157,-6.4141 -1.0079,1.3516 -0.5586,2.9531 -0.8125,4.543 -0.5625,-0.3125 -1.0352,-0.586 -1.5196,-0.8438 -0.6015,-0.3203 -0.7734,-0.2304 -0.9062,0.4414 -0.0156,0.0899 -0.0313,0.1797 -0.0469,0.2657 -0.2617,1.6562 0.1133,2.2968 1.7109,2.7578 0.3008,0.0859 0.668,-0.0469 1.1055,-0.086 -0.4141,0.5313 -0.7812,1.0039 -1.1523,1.4766 0.0664,0.0664 0.1328,0.1328 0.1992,0.1992 l 0.6484,-0.3672 c 0.6563,-0.375 1.2891,-0.8086 1.9805,-1.1015 0.3555,-0.1524 0.8125,-0.0782 1.2227,-0.0664 1.1796,0.039 2.246,-0.336 3.2539,-0.8868 0.1523,-0.0859 0.2226,-0.4218 0.2304,-0.6445 0.0078,-0.3828 0.1875,-0.5703 0.5235,-0.5 0.0898,0.0156 0.1836,0.3985 0.1445,0.5899 -0.2578,1.25 -0.2578,2.4414 0.5195,3.5468 0.0899,0.1289 0.0469,0.4805 -0.0703,0.6094 -0.4492,0.5 -1.0039,0.9024 -1.4219,1.4219 -0.9218,1.1406 -1.7656,2.3437 -2.6757,3.4922 -0.4649,0.5859 -0.9649,1.1523 -1.5235,1.6445 -0.832,0.7383 -1.707,1.4297 -2.5976,2.0938 -0.9766,0.7304 -1.375,1.8242 -1.8125,2.8593 -0.5039,1.1875 -0.7227,2.4961 -1.2305,3.6836 -0.8086,1.8945 -1.5234,3.8555 -3.3086,5.1758 -1.082,0.8008 -1.8672,1.918 -2.4336,3.1563 -0.2852,0.6171 -0.7187,0.6445 -1.2695,0.3867 -1.0703,-0.5 -2.0938,-1.1172 -3.3438,-1.1211 -1.375,-0.0078 -2.6093,0.0976 -3.5234,1.414 -0.9063,1.3086 -1.8438,2.5352 -1.7891,4.2305 C 45.8984,70 45.793,70.3008 45.6367,70.5 c -0.957,1.2422 -1.9648,2.4453 -3.3281,3.2852 -0.1524,0.0937 -0.2891,0.207 -0.4258,0.3242 -0.4766,0.3945 -0.9297,1.1015 -1.4219,1.1289 -1.0898,0.0625 -2.25,-0.0703 -3.289,-0.4063 -0.9414,-0.3047 -1.9571,-0.664 -2.5899,-1.582 -0.1406,-0.1992 -0.5078,-0.3242 -0.7734,-0.332 -0.6328,-0.0235 -0.9063,-0.3907 -1.1992,-0.8946 -0.6328,-1.0781 -1.3867,-2.0859 -2.0156,-3.1718 -0.4727,-0.8243 -0.8282,-1.7149 -1.2344,-2.5782 0.039,-0.0156 0.0742,-0.0273 0.1133,-0.0429"
             id="path4"
             fill="#2c6c8c"
             style="fill:#ffffff" />
        </g>
        <path
           d="m 8.86719,35.1367 c 0.71875,-0.6094 0.93359,-0.6094 1.71091,-0.0586 -0.5625,0.7461 -0.80076,0.7617 -1.71091,0.0586"
           id="path14"
           fill="#2c6c8c"
           style="fill:#ffffff" />
        <g
           id="g28"
           style="fill:#ffffff">
          <g
             id="g5"
             clip-path="url(#7527af9f57)"
             style="fill:#ffffff">
            <path
               d="m 52.3047,10.7031 c -0.7735,0.0899 -1.4063,0.1719 -2.0352,0.2383 -3.7422,0.4102 -7.457,0.9883 -11.0273,2.2227 -2.1914,0.7539 -4.2031,1.875 -6.043,3.3007 -0.3828,0.2969 -0.7422,0.754 -1.3554,0.4454 -0.086,-0.043 -0.3008,0.0742 -0.4063,0.1718 -0.4531,0.4297 -0.918,0.8555 -1.3281,1.3242 -0.4961,0.5704 -0.6485,0.586 -1.211,-0.1015 0.2774,-0.2188 0.5313,-0.4727 0.8282,-0.6524 2.1054,-1.2617 4.1953,-2.5429 6.3359,-3.7382 0.7109,-0.3985 1.5586,-0.5469 2.3242,-0.8438 0.875,-0.3437 1.711,-0.7734 2.5977,-1.0742 0.8633,-0.293 1.7656,-0.4727 2.6562,-0.6875 0.8047,-0.1953 1.6055,-0.4727 2.418,-0.5313 1.9805,-0.1406 3.9687,-0.1757 5.9531,-0.25 0.0469,0 0.0977,0.0586 0.293,0.1758"
               id="path5"
               fill="#2c6c8c"
               style="fill:#ffffff" />
          </g>
          <path
             d="m 42.793,13.6406 c -0.375,0.2656 -0.6602,0.4688 -1.0313,0.7344 0.3555,0.1641 0.586,0.2734 0.9024,0.4219 -0.5977,0.332 -1.125,0.6289 -1.6524,0.9179 -0.6836,0.379 -1.375,0.75 -2.0547,1.1368 -0.5429,0.3046 -1.0468,0.25 -1.7265,-0.1719 0.4453,-0.3711 0.7812,-0.707 1.1718,-0.9609 0.3633,-0.2383 0.7852,-0.3907 1.125,-0.711 -0.9531,-0.1133 -1.7734,0.2539 -2.5937,0.5781 -0.8398,0.336 -1.6563,0.7344 -2.4844,1.1016 -0.0273,-0.0508 -0.0547,-0.1016 -0.082,-0.1563 0.5703,-0.3085 1.1328,-0.6328 1.7109,-0.9296 0.8828,-0.4532 1.7422,-0.9883 2.6758,-1.3125 1.1328,-0.3868 2.3281,-0.5977 3.5,-0.8594 0.1328,-0.0313 0.3047,0.1133 0.5391,0.2109"
             id="path6"
             fill="#2c6c8c"
             style="fill:#ffffff" />
          <path
             d="m 51.1836,14.1367 c 0.0937,-0.539 0.2148,-1.0039 0.2422,-1.4726 0.0273,-0.461 0.2578,-0.4688 0.625,-0.4453 0.5586,0.0312 1.125,-0.0196 1.6875,-0.004 0.2812,0.0079 0.5586,0.0782 0.8359,0.1407 0.2735,0.0625 0.5391,0.1562 0.9688,0.2812 -0.2461,0.6797 -0.4297,1.418 -0.7969,2.0547 -0.125,0.2109 -0.7422,0.2695 -1.0899,0.1953 -0.8593,-0.1953 -1.6914,-0.5078 -2.4726,-0.75"
             id="path7"
             fill="#2c6c8c"
             style="fill:#ffffff" />
          <path
             d="m 64.4062,25.6328 c 0,1.4258 0,2.7617 0,4.0938 -0.0039,0.0625 -0.0195,0.1445 -0.0624,0.1836 -0.754,0.6796 -1.5118,1.3554 -2.3086,2.0664 -0.0821,-0.8008 1.8281,-5.9844 2.371,-6.3438"
             id="path8"
             fill="#2c6c8c"
             style="fill:#ffffff" />
          <path
             d="m 35.6367,18.918 -4.1601,3.625 c -0.0469,-0.0196 -0.0938,-0.0391 -0.1407,-0.0586 0.0977,-0.3438 0.1485,-0.711 0.3008,-1.0313 0.3477,-0.7461 0.7539,-1.4648 1.125,-2.2031 0.3047,-0.6055 0.75,-0.9141 1.4571,-0.7812 0.4765,0.0898 0.9609,0.1406 1.4414,0.207 -0.0079,0.0781 -0.0157,0.1601 -0.0235,0.2422"
             id="path9"
             fill="#2c6c8c"
             style="fill:#ffffff" />
          <path
             d="m 50.5195,17.7734 c 0.3008,-0.0195 0.4844,-0.0312 0.7657,-0.0468 -0.3047,0.4609 -0.3672,1.0703 -1.0586,0.8906 -0.5625,-0.1484 -0.8204,-0.8984 -0.5821,-1.586 0.2071,-0.6015 0.5117,-0.7226 1.2539,-0.4726 -0.0507,0.1797 -0.1015,0.3672 -0.1562,0.5508 -0.0586,0.1875 -0.125,0.375 -0.2227,0.664"
             id="path10"
             fill="#2c6c8c"
             style="fill:#ffffff" />
          <path
             d="m 15.4141,29.082 c 1.4882,-1.2304 2.9765,-2.457 4.4648,-3.6875 0.0508,0.0625 0.1055,0.1289 0.1563,0.1914 -1.4766,1.2383 -2.6797,2.8008 -4.4532,3.6797 -0.0586,-0.0625 -0.1132,-0.1211 -0.1679,-0.1836"
             id="path11"
             fill="#2c6c8c"
             style="fill:#ffffff" />
          <path
             d="m 66.2695,17.3477 c 1.2891,0.4804 1.586,0.9179 1.6328,2.664 -0.5664,-0.9219 -1.0703,-1.7461 -1.6328,-2.664"
             id="path12"
             fill="#2c6c8c"
             style="fill:#ffffff" />
          <path
             d="m 31.8125,18.6172 c -0.4805,0.8398 -0.5977,1.9219 -1.6133,2.4062 0.168,-1.0468 0.832,-1.7695 1.6133,-2.4062"
             id="path13"
             fill="#2c6c8c"
             style="fill:#ffffff" />
          <path
             d="m 27.8906,21.4023 c -0.3633,0.7461 -0.8359,1.0782 -1.4453,0.8555 0.4883,-0.3672 0.9024,-0.6875 1.3203,-1.0039 0.0391,0.0508 0.0821,0.1016 0.125,0.1484"
             id="path15"
             fill="#2c6c8c"
             style="fill:#ffffff" />
          <path
             d="m 34.4062,29.2109 h 1.4415 c 0,0.0703 0.0039,0.1368 0.0039,0.2071 -0.4727,0.3632 -0.9649,0.1914 -1.4454,-0.2071"
             id="path16"
             fill="#2c6c8c"
             style="fill:#ffffff" />
          <path
             d="m 35.6562,24.3672 c -0.3984,-0.0156 -0.8007,-0.0352 -1.1992,-0.0508 0,-0.0859 0.0039,-0.1719 0.0039,-0.2539 0.4024,-0.3281 0.8047,-0.1953 1.211,0.0195 -0.0078,0.0938 -0.0117,0.1914 -0.0157,0.2852"
             id="path17"
             fill="#2c6c8c"
             style="fill:#ffffff" />
          <path
             d="m 63.7969,15.8555 c 0.3789,0.2187 0.7578,0.4414 1.2773,0.7461 -0.8906,0.3398 -1.0703,-0.2266 -1.3828,-0.5586 0.0352,-0.0625 0.0703,-0.125 0.1055,-0.1875"
             id="path18"
             fill="#2c6c8c"
             style="fill:#ffffff" />
          <g
             id="g50"
             fill="#0d1b2a"
             style="fill:#ffffff">
            <g
               id="g49"
               transform="translate(58.1058,36.3484)"
               style="fill:#ffffff">
              <path
                 d="m 2.76562,0 v -21.2812 h 9.07818 c 1.3124,0 2.4218,0.2109 3.3281,0.625 0.9062,0.4062 1.5937,0.9921 2.0625,1.75 0.4687,0.7617 0.7031,1.664 0.7031,2.7031 0,0.9375 -0.2305,1.7656 -0.6875,2.4843 -0.4609,0.7188 -1.1172,1.2969 -1.9688,1.7344 v 0.3125 c 1.3438,0.3438 2.379,0.9805 3.1094,1.90628 0.7266,0.91796 1.0938,2.04687 1.0938,3.39062 0,2.04297 -0.6172,3.61719 -1.8438,4.71875 C 16.4102,-0.550781 14.5859,0 12.1719,0 Z m 8.20318,-12.7969 c 1.9687,0 2.9531,-0.8789 2.9531,-2.6406 0,-0.9063 -0.2461,-1.5781 -0.7344,-2.0156 -0.4922,-0.4453 -1.2305,-0.6719 -2.2187,-0.6719 H 6.96875 v 5.3281 z m 0.7812,9.46878 c 2.3125,0 3.4688,-1.05469 3.4688,-3.17188 0,-2.11328 -1.1563,-3.17188 -3.4688,-3.17188 H 6.96875 v 6.34376 z"
                 id="path48"
                 style="fill:#ffffff" />
            </g>
          </g>
          <g
             id="g52"
             fill="#0d1b2a"
             style="fill:#ffffff">
            <g
               id="g51"
               transform="translate(79.3641,36.3484)"
               style="fill:#ffffff">
              <path
                 d="m 4.32812,-17.9844 c -0.73046,0 -1.32421,-0.2187 -1.78124,-0.6562 -0.46094,-0.4375 -0.6875,-1.0039 -0.6875,-1.7032 0,-0.6953 0.22656,-1.2656 0.6875,-1.7031 0.45703,-0.4375 1.05078,-0.6562 1.78124,-0.6562 0.47657,0 0.90626,0.1054 1.28126,0.3125 0.38281,0.1992 0.67968,0.4765 0.89062,0.8281 0.20703,0.3555 0.3125,0.7617 0.3125,1.2187 0,0.4493 -0.10547,0.8555 -0.3125,1.2188 -0.21094,0.3555 -0.50781,0.6367 -0.89062,0.8438 -0.375,0.1992 -0.80469,0.2968 -1.28126,0.2968 z M 2.3125,0 V -16.0625 H 6.34375 V 0 Z"
                 id="path50"
                 style="fill:#ffffff" />
            </g>
          </g>
          <g
             id="g54"
             fill="#0d1b2a"
             style="fill:#ffffff">
            <g
               id="g53"
               transform="translate(88.4559,36.3484)"
               style="fill:#ffffff">
              <path
                 d="m 2.3125,0 v -22.5 h 4.03125 v 12.4844 h 0.39063 l 4.65622,-6.0469 h 4.0782 v 0.3437 l -5.4532,7.04692 6.0625,8.312505 V 0 h -4.25 L 6.73438,-6.76562 H 6.34375 V 0 Z"
                 id="path52"
                 style="fill:#ffffff" />
            </g>
          </g>
          <g
             id="g56"
             fill="#0d1b2a"
             style="fill:#ffffff">
            <g
               id="g55"
               transform="translate(104.766,36.3484)"
               style="fill:#ffffff">
              <path
                 d="M 15.8594,-7.125 H 5.54688 c 0.11328,1.40625 0.50781,2.42969 1.1875,3.0625 0.6875,0.63672 1.61328,0.95312 2.78124,0.95312 0.92578,0 1.67578,-0.17187 2.24998,-0.51562 0.5703,-0.35156 1.0313,-0.87891 1.375,-1.57812 h 0.3125 l 2.6719,1.71874 c -0.5234,1.125 -1.3125,2.04297 -2.375,2.750005 C 12.6953,-0.0351562 11.2852,0.3125 9.51562,0.3125 7.85938,0.3125 6.42578,-0.00390625 5.21875,-0.640625 4.00781,-1.27344 3.07812,-2.21094 2.42188,-3.45312 1.76562,-4.70312 1.4375,-6.22266 1.4375,-8.01562 c 0,-1.82032 0.34375,-3.35938 1.03125,-4.60938 0.69531,-1.2578 1.62891,-2.1953 2.79687,-2.8125 1.17579,-0.6133 2.5,-0.9219 3.96876,-0.9219 2.26952,0 4.00782,0.6055 5.21872,1.8125 1.2071,1.1992 1.8125,2.961 1.8125,5.28128 0,0.85546 -0.0312,1.51171 -0.0937,1.96874 z m -3.4532,-2.59375 c -0.0429,-1.22655 -0.3281,-2.11715 -0.8593,-2.67185 -0.5313,-0.5625 -1.3047,-0.8438 -2.31252,-0.8438 -2.04297,0 -3.24219,1.1719 -3.59376,3.51565 z"
                 id="path54"
                 style="fill:#ffffff" />
            </g>
          </g>
          <g
             id="g58"
             fill="#0d1b2a"
             style="fill:#ffffff">
            <g
               id="g57"
               transform="translate(122.663,36.3484)"
               style="fill:#ffffff">
              <path
                 d="m 2.3125,0 v -16.0625 h 3.92188 v 2.3906 l 0.29687,0.0625 c 0.39453,-0.8945 0.90625,-1.5508 1.53125,-1.9687 0.63281,-0.4141 1.39844,-0.625 2.2969,-0.625 0.914,0 1.6133,0.1562 2.0937,0.4687 l -0.6875,3.4844 -0.3125,0.0469 c -0.2617,-0.1016 -0.5156,-0.1758 -0.7656,-0.2188 -0.2422,-0.0508 -0.5313,-0.0781 -0.875,-0.0781 -1.125,0 -1.98438,0.3984 -2.57812,1.1875 -0.59376,0.793 -0.89063,2.05859 -0.89063,3.79688 V 0 Z"
                 id="path56"
                 style="fill:#ffffff" />
            </g>
          </g>
          <g
             id="g60"
             fill="#0d1b2a"
             style="fill:#ffffff">
            <g
               id="g59"
               transform="translate(135.698,36.3484)"
               style="fill:#ffffff">
              <path
                 d="M 10.1562,0 H 5.45312 L 0.578125,-21.2812 H 4.78125 l 3.20313,14.9687 h 0.375 l 3.81252,-14.9687 h 3.5937 l 3.8906,14.9687 h 0.3594 L 23.25,-21.2812 h 4.0469 L 22.4375,0 h -4.7187 l -3.7344,-13.7344 h -0.2969 z"
                 id="path58"
                 style="fill:#ffffff" />
            </g>
          </g>
          <g
             id="g61"
             clip-path="url(#e52869c1f2)"
             style="fill:#ffffff">
            <path
               d="m 172.336,34.0977 c -3.059,0 -5.547,-2.4883 -5.547,-5.5469 0,-3.0586 2.488,-5.5469 5.547,-5.5469 3.059,0 5.547,2.4883 5.547,5.5469 0,3.0586 -2.488,5.5469 -5.547,5.5469 z m 6.605,-5.5469 c 0,-0.1602 -0.011,-0.3203 -0.019,-0.4805 l 1.238,-0.7695 c -0.086,-0.5469 -0.23,-1.0742 -0.422,-1.5742 l -1.457,-0.0508 c -0.14,-0.2891 -0.301,-0.5703 -0.484,-0.836 l 0.687,-1.2812 c -0.343,-0.4219 -0.73,-0.8086 -1.156,-1.1524 l -1.281,0.6836 c -0.266,-0.1796 -0.543,-0.3437 -0.836,-0.4843 l -0.047,-1.4532 c -0.504,-0.1953 -1.031,-0.3359 -1.574,-0.4257 l -0.774,1.2422 c -0.16,-0.0118 -0.32,-0.0196 -0.48,-0.0196 -0.16,0 -0.32,0.0078 -0.481,0.0196 l -0.773,-1.2422 c -0.543,0.0898 -1.07,0.2304 -1.574,0.4257 l -0.047,1.4532 c -0.293,0.1406 -0.57,0.3047 -0.836,0.4843 l -1.281,-0.6836 c -0.422,0.3438 -0.813,0.7305 -1.156,1.1524 l 0.687,1.2812 c -0.184,0.2657 -0.344,0.5469 -0.484,0.836 l -1.457,0.0508 c -0.192,0.5 -0.336,1.0273 -0.422,1.5742 l 1.242,0.7695 c -0.012,0.1602 -0.02,0.3203 -0.02,0.4805 0,0.164 0.008,0.3242 0.02,0.4804 l -1.242,0.7735 c 0.086,0.5469 0.23,1.0703 0.422,1.5742 l 1.457,0.0469 c 0.14,0.293 0.3,0.5703 0.484,0.8359 l -0.687,1.2852 c 0.343,0.4219 0.734,0.8086 1.156,1.1523 l 1.281,-0.6836 c 0.266,0.1797 0.543,0.3399 0.836,0.4805 l 0.047,1.457 c 0.504,0.1914 1.031,0.336 1.574,0.4219 l 0.773,-1.2383 c 0.161,0.0117 0.321,0.0195 0.481,0.0195 0.16,0 0.32,-0.0078 0.48,-0.0195 l 0.774,1.2383 c 0.543,-0.0859 1.07,-0.2305 1.574,-0.4219 l 0.047,-1.457 c 0.293,-0.1406 0.57,-0.3008 0.836,-0.4805 l 1.281,0.6836 c 0.426,-0.3437 0.813,-0.7304 1.156,-1.1523 l -0.687,-1.2852 c 0.183,-0.2656 0.344,-0.5429 0.484,-0.8359 l 1.457,-0.0469 c 0.192,-0.5039 0.336,-1.0273 0.422,-1.5742 l -1.238,-0.7735 c 0.008,-0.1562 0.019,-0.3164 0.019,-0.4804"
               id="path60"
               fill="#2c6c8c"
               style="fill:#ffffff" />
          </g>
          <path
             d="m 176.672,27.3906 c 0.078,0.2813 -0.09,0.5703 -0.371,0.6446 -0.281,0.0781 -0.574,-0.0899 -0.649,-0.3711 -0.074,-0.2813 0.094,-0.5703 0.375,-0.6485 0.282,-0.0742 0.571,0.0938 0.645,0.375 z m 0,2.3242 c -0.074,0.2813 -0.363,0.4493 -0.645,0.3711 -0.281,-0.0742 -0.449,-0.3632 -0.375,-0.6445 0.075,-0.2812 0.368,-0.4492 0.649,-0.375 0.281,0.0781 0.449,0.3672 0.371,0.6484 z m -1.16,2.0118 c -0.207,0.207 -0.543,0.207 -0.746,0 -0.207,-0.2071 -0.207,-0.5391 0,-0.7461 0.203,-0.2071 0.539,-0.2071 0.746,0 0.207,0.207 0.207,0.539 0,0.7461 z m -0.746,-6.3477 c 0.203,-0.207 0.539,-0.207 0.746,0 0.207,0.2031 0.207,0.5391 0,0.7461 -0.207,0.207 -0.543,0.207 -0.746,0 -0.207,-0.207 -0.207,-0.543 0,-0.7461 z m -0.895,-0.5156 c -0.074,0.2812 -0.363,0.4492 -0.644,0.3711 -0.282,-0.0742 -0.45,-0.3633 -0.375,-0.6446 0.074,-0.2812 0.367,-0.4492 0.648,-0.375 0.281,0.0743 0.445,0.3672 0.371,0.6485 z m -0.371,8.0273 c -0.281,0.0742 -0.574,-0.0937 -0.648,-0.375 -0.075,-0.2812 0.093,-0.5703 0.375,-0.6484 0.281,-0.0742 0.57,0.0937 0.644,0.375 0.074,0.2812 -0.09,0.5703 -0.371,0.6484 z m -2.484,-4.3398 c 0,-0.7266 0.593,-1.3203 1.32,-1.3203 0.726,0 1.32,0.5937 1.32,1.3203 0,0.7304 -0.594,1.3203 -1.32,1.3203 -0.727,0 -1.32,-0.5899 -1.32,-1.3203 z m 0.804,3.9648 c -0.074,0.2813 -0.363,0.4492 -0.648,0.375 -0.277,-0.0781 -0.445,-0.3672 -0.371,-0.6484 0.074,-0.2813 0.367,-0.4492 0.648,-0.375 0.281,0.0781 0.446,0.3672 0.371,0.6484 z m -1.914,-0.789 c -0.203,0.207 -0.539,0.207 -0.746,0 -0.207,-0.2071 -0.207,-0.5391 0,-0.7461 0.207,-0.2071 0.543,-0.2071 0.746,0 0.207,0.207 0.207,0.539 0,0.7461 z m -1.261,-1.6368 c -0.282,0.0743 -0.571,-0.0937 -0.645,-0.375 -0.078,-0.2812 0.09,-0.5703 0.371,-0.6484 0.281,-0.0742 0.574,0.0938 0.649,0.375 0.074,0.2813 -0.094,0.5703 -0.375,0.6484 z M 168,27.3906 c 0.074,-0.2812 0.363,-0.4492 0.645,-0.375 0.281,0.0782 0.449,0.3672 0.375,0.6485 -0.075,0.2812 -0.368,0.4492 -0.649,0.3711 -0.281,-0.0743 -0.449,-0.3633 -0.371,-0.6446 z m 1.16,-2.0117 c 0.207,-0.207 0.543,-0.207 0.746,0 0.207,0.2031 0.207,0.5391 0,0.7461 -0.203,0.207 -0.539,0.207 -0.746,0 -0.207,-0.207 -0.207,-0.543 0,-0.7461 z m 2.012,-1.1641 c 0.285,-0.0742 0.574,0.0938 0.648,0.375 0.075,0.2813 -0.09,0.5704 -0.371,0.6446 -0.281,0.0781 -0.574,-0.0899 -0.648,-0.3711 -0.074,-0.2813 0.094,-0.5742 0.371,-0.6485 z m 1.164,-0.9453 c -2.914,0 -5.281,2.3711 -5.281,5.2813 0,2.914 2.367,5.2851 5.281,5.2851 2.914,0 5.281,-2.3711 5.281,-5.2851 0,-2.9102 -2.367,-5.2813 -5.281,-5.2813"
             id="path61"
             fill="#2c6c8c"
             style="fill:#ffffff" />
          <g
             id="g66"
             fill="#0d1b2a"
             style="fill:#ffffff">
            <g
               id="g62"
               transform="translate(181.72,36.3484)"
               style="fill:#ffffff">
              <path
                 d="m 2.3125,0 v -16.0625 h 3.92188 v 2.3906 l 0.29687,0.0625 c 0.39453,-0.8945 0.90625,-1.5508 1.53125,-1.9687 0.63281,-0.4141 1.39844,-0.625 2.2969,-0.625 0.914,0 1.6133,0.1562 2.0937,0.4687 l -0.6875,3.4844 -0.3125,0.0469 c -0.2617,-0.1016 -0.5156,-0.1758 -0.7656,-0.2188 -0.2422,-0.0508 -0.5313,-0.0781 -0.875,-0.0781 -1.125,0 -1.98438,0.3984 -2.57812,1.1875 -0.59376,0.793 -0.89063,2.05859 -0.89063,3.79688 V 0 Z"
                 id="path62"
                 style="fill:#ffffff" />
            </g>
            <g
               id="g63"
               transform="translate(194.309,36.3484)"
               style="fill:#ffffff">
              <path
                 d="m 6.67188,0.3125 c -1.44922,0 -2.55469,-0.390625 -3.3125,-1.171875 C 2.59766,-1.64062 2.21875,-2.82812 2.21875,-4.42188 V -22.5 H 6.25 v 17.92188 c 0,0.98046 0.40625,1.46874 1.21875,1.46874 0.22656,0 0.47266,-0.03906 0.73437,-0.125 l 0.20313,0.0625 0.375,3.093755 C 8.55078,0.046875 8.25391,0.140625 7.89062,0.203125 7.52344,0.273438 7.11719,0.3125 6.67188,0.3125 Z"
                 id="path63"
                 style="fill:#ffffff" />
            </g>
            <g
               id="g64"
               transform="translate(203.536,36.3484)"
               style="fill:#ffffff">
              <path
                 d="M 7.9375,0.3125 C 6.66406,0.3125 5.53906,0.00390625 4.5625,-0.609375 3.58203,-1.23438 2.81641,-2.16406 2.26562,-3.40625 1.71094,-4.65625 1.4375,-6.19141 1.4375,-8.01562 c 0,-1.83204 0.28125,-3.37498 0.84375,-4.62498 0.57031,-1.25 1.35937,-2.1797 2.35937,-2.7969 1.00782,-0.6133 2.17579,-0.9219 3.5,-0.9219 1,0 1.86328,0.1719 2.59378,0.5156 0.7265,0.3438 1.3476,0.8829 1.8594,1.6094 l 0.2968,-0.0781 V -22.5 h 4.0313 V 0 h -4.0313 v -2.07812 l -0.2968,-0.0625 C 12.1445,-1.37891 11.5312,-0.78125 10.75,-0.34375 9.97656,0.09375 9.03906,0.3125 7.9375,0.3125 Z M 9.25,-3.10938 c 1.1328,0 2.0312,-0.40624 2.6875,-1.21874 0.6563,-0.8125 0.9844,-2.03907 0.9844,-3.6875 0,-1.65626 -0.3281,-2.89058 -0.9844,-3.70318 -0.6563,-0.8124 -1.5547,-1.2187 -2.6875,-1.2187 -1.1875,0 -2.09375,0.3984 -2.71875,1.1875 -0.625,0.793 -0.9375,2.03906 -0.9375,3.73438 0,1.6875 0.3125,2.92968 0.9375,3.71874 0.625,0.79297 1.53125,1.1875 2.71875,1.1875 z"
                 id="path64"
                 style="fill:#ffffff" />
            </g>
            <g
               id="g65"
               transform="translate(222.775,36.3484)"
               style="fill:#ffffff">
              <path
                 d="m 2.76562,0 v -21.2812 h 4.20313 v 8.6874 H 7.4375 l 7.1094,-8.6874 h 4.2969 v 0.3593 l -7.8282,9.6875 8.6563,10.875025 V 0 H 14.9062 L 7.4375,-9.1875 H 6.96875 V 0 Z"
                 id="path65"
                 style="fill:#ffffff" />
            </g>
          </g>
          <g
             id="g69"
             fill="#0d1b2a"
             style="fill:#ffffff">
            <g
               id="g67"
               transform="translate(242.015,36.3484)"
               style="fill:#ffffff">
              <path
                 d="M 15.8594,-7.125 H 5.54688 c 0.11328,1.40625 0.50781,2.42969 1.1875,3.0625 0.6875,0.63672 1.61328,0.95312 2.78124,0.95312 0.92578,0 1.67578,-0.17187 2.24998,-0.51562 0.5703,-0.35156 1.0313,-0.87891 1.375,-1.57812 h 0.3125 l 2.6719,1.71874 c -0.5234,1.125 -1.3125,2.04297 -2.375,2.750005 C 12.6953,-0.0351562 11.2852,0.3125 9.51562,0.3125 7.85938,0.3125 6.42578,-0.00390625 5.21875,-0.640625 4.00781,-1.27344 3.07812,-2.21094 2.42188,-3.45312 1.76562,-4.70312 1.4375,-6.22266 1.4375,-8.01562 c 0,-1.82032 0.34375,-3.35938 1.03125,-4.60938 0.69531,-1.2578 1.62891,-2.1953 2.79687,-2.8125 1.17579,-0.6133 2.5,-0.9219 3.96876,-0.9219 2.26952,0 4.00782,0.6055 5.21872,1.8125 1.2071,1.1992 1.8125,2.961 1.8125,5.28128 0,0.85546 -0.0312,1.51171 -0.0937,1.96874 z m -3.4532,-2.59375 c -0.0429,-1.22655 -0.3281,-2.11715 -0.8593,-2.67185 -0.5313,-0.5625 -1.3047,-0.8438 -2.31252,-0.8438 -2.04297,0 -3.24219,1.1719 -3.59376,3.51565 z"
                 id="path66"
                 style="fill:#ffffff" />
            </g>
            <g
               id="g68"
               transform="translate(259.464,36.3484)"
               style="fill:#ffffff">
              <path
                 d="m 2.3125,0 v -16.0625 h 3.875 v 2.3594 L 6.5,-13.625 c 0.98828,-1.8203 2.60938,-2.7344 4.8594,-2.7344 1.8515,0 3.2109,0.5078 4.0781,1.5156 0.8633,1.0118 1.2969,2.4805 1.2969,4.4063 V 0 h -4.0313 v -9.9375 c 0,-1.0703 -0.2148,-1.8437 -0.6406,-2.3125 -0.4297,-0.4688 -1.1094,-0.7031 -2.0469,-0.7031 -1.15622,0 -2.05857,0.375 -2.7031,1.125 -0.64844,0.7422 -0.96875,1.91404 -0.96875,3.5156 V 0 Z"
                 id="path67"
                 style="fill:#ffffff" />
            </g>
          </g>
          <g
             id="g71"
             fill="#0d1b2a"
             style="fill:#ffffff">
            <g
               id="g70"
               transform="translate(278.078,36.3484)"
               style="fill:#ffffff">
              <path
                 d="m 3.54688,6.8125 c -0.6875,0 -1.3125,-0.05469 -1.875,-0.15625 C 1.11719,6.55078 0.664062,6.41016 0.3125,6.23438 L 0.953125,2.96875 1.21875,2.875 c 0.25,0.13281 0.55078,0.23828 0.90625,0.3125 0.35156,0.07031 0.72266,0.10938 1.10938,0.10938 0.64453,0 1.17968,-0.08594 1.60937,-0.25 C 5.28125,2.87891 5.64844,2.59766 5.95312,2.20312 6.25391,1.80469 6.51953,1.25781 6.75,0.5625 L 0.34375,-16.0625 H 4.57812 L 8.5625,-4.89062 H 8.90625 L 12.7969,-16.0625 h 4.1093 L 10.4531,1 C 9.94141,2.38281 9.375,3.49219 8.75,4.32812 8.13281,5.17188 7.40625,5.79688 6.5625,6.20312 5.72656,6.60938 4.72266,6.8125 3.54688,6.8125 Z"
                 id="path69"
                 style="fill:#ffffff" />
            </g>
          </g>
          <g
             id="g73"
             fill="#0d1b2a"
             style="fill:#ffffff">
            <g
               id="g72"
               transform="translate(295.003,36.3484)"
               style="fill:#ffffff">
              <path
                 d="m 6.26562,0.3125 c -1.03124,0 -1.92968,-0.1875 -2.6875,-0.5625 -0.75,-0.382812 -1.33593,-0.94141 -1.75,-1.67188 -0.40624,-0.73828 -0.60937,-1.625 -0.60937,-2.65624 0,-0.94532 0.20313,-1.74219 0.60937,-2.39063 C 2.24219,-7.61328 2.875,-8.14062 3.71875,-8.54688 4.57031,-8.96094 5.69141,-9.28125 7.07812,-9.5 c 0.95704,-0.15625 1.6875,-0.32812 2.1875,-0.5156 0.5,-0.1875 0.83598,-0.3946 1.01558,-0.625 0.1758,-0.2266 0.2657,-0.5235 0.2657,-0.8906 0,-0.5079 -0.1836,-0.8985 -0.5469,-1.1719 -0.35547,-0.2696 -0.95312,-0.4063 -1.79688,-0.4063 -0.88671,0 -1.73437,0.1992 -2.54687,0.5938 -0.80469,0.3984 -1.5,0.9179 -2.09375,1.5625 H 3.28125 L 1.59375,-13.5 c 0.8125,-0.8945 1.80078,-1.5938 2.96875,-2.0938 1.17578,-0.5078 2.45703,-0.7656 3.84375,-0.7656 2.13285,0 3.67575,0.4532 4.62495,1.3594 0.9454,0.8984 1.4219,2.1719 1.4219,3.8281 v 6.9844 c 0,0.71875 0.3164,1.07812 0.9531,1.07812 0.2383,0 0.4727,-0.04687 0.7032,-0.14062 l 0.2031,0.0625 0.2969,2.8125 c -0.2188,0.148438 -0.5313,0.265625 -0.9375,0.359375 -0.3985,0.0820312 -0.8281,0.125 -1.2969,0.125 -0.9688,0 -1.7266,-0.1796875 -2.2656,-0.546875 -0.5313,-0.363281 -0.9141,-0.94141 -1.1406,-1.73438 L 10.6562,-2.20312 C 9.86328,-0.523438 8.39844,0.3125 6.26562,0.3125 Z m 1.28126,-3.01562 c 0.92578,0 1.66406,-0.3125 2.21874,-0.9375 0.56248,-0.625 0.84378,-1.5 0.84378,-2.625 v -1.625 l -0.2813,-0.0625 c -0.2422,0.19921 -0.55857,0.36718 -0.9531,0.5 -0.38672,0.125 -0.94922,0.25 -1.6875,0.375 -0.875,0.14843 -1.50781,0.39843 -1.89062,0.75 -0.38672,0.35546 -0.57813,0.85937 -0.57813,1.51562 0,0.6875 0.20313,1.21484 0.60937,1.57812 0.41407,0.35547 0.98829,0.53126 1.71876,0.53126 z"
                 id="path71"
                 style="fill:#ffffff" />
            </g>
          </g>
          <text
             xml:space="preserve"
             transform="translate(-180.58578,-369.28092)"
             id="text28"
             style="font-style:normal;font-variant:normal;font-weight:normal;font-stretch:normal;font-size:13.3333px;font-family:Elephant;-inkscape-font-specification:'Elephant, Normal';font-variant-ligatures:normal;font-variant-caps:normal;font-variant-numeric:normal;font-variant-east-asian:normal;writing-mode:lr-tb;direction:ltr;white-space:pre;shape-inside:url(#rect28);display:inline;fill:#ffffff;fill-opacity:1;stroke-width:5.15906;stroke-dasharray:none"><tspan
               x="253.00391"
               y="416.38985"
               id="tspan1">Rider Training Academy</tspan></text>
        </g>
      </g>
    </g>
  </g>
</svg>
