<?xml version="1.0" encoding="UTF-8" standalone="no"?>
<svg
   width="430"
   zoomAndPan="magnify"
   viewBox="0 0 322.5 76.499998"
   height="102"
   preserveAspectRatio="xMidYMid meet"
   version="1.2"
   id="svg73"
   sodipodi:docname="bikerworldkenya-dark-blue.svg"
   inkscape:version="1.4 (86a8ad7, 2024-10-11)"
   xmlns:inkscape="http://www.inkscape.org/namespaces/inkscape"
   xmlns:sodipodi="http://sodipodi.sourceforge.net/DTD/sodipodi-0.dtd"
   xmlns="http://www.w3.org/2000/svg"
   xmlns:svg="http://www.w3.org/2000/svg">
  <sodipodi:namedview
     id="namedview73"
     pagecolor="#ffffff"
     bordercolor="#000000"
     borderopacity="0.25"
     inkscape:showpageshadow="2"
     inkscape:pageopacity="0.0"
     inkscape:pagecheckerboard="0"
     inkscape:deskcolor="#d1d1d1"
     inkscape:zoom="2.055814"
     inkscape:cx="199.92081"
     inkscape:cy="-17.2681"
     inkscape:window-width="1920"
     inkscape:window-height="1046"
     inkscape:window-x="2389"
     inkscape:window-y="-11"
     inkscape:window-maximized="1"
     inkscape:current-layer="33d25a3dc0" />
  <defs
     id="defs3">
    <clipPath
       id="ccf93b696d">
      <path
         d="M 0.796875 15 L 73 15 L 73 75.328125 L 0.796875 75.328125 Z M 0.796875 15 "
         id="path1" />
    </clipPath>
    <clipPath
       id="7527af9f57">
      <path
         d="M 28 10.5 L 53 10.5 L 53 19 L 28 19 Z M 28 10.5 "
         id="path2" />
    </clipPath>
    <clipPath
       id="e52869c1f2">
      <path
         d="M 164.511719 20.726562 L 180.160156 20.726562 L 180.160156 36.375 L 164.511719 36.375 Z M 164.511719 20.726562 "
         id="path3" />
    </clipPath>
  </defs>
  <g
     id="33d25a3dc0">
    <g
       clip-rule="nonzero"
       clip-path="url(#ccf93b696d)"
       id="g4">
      <path
         style=" stroke:none;fill-rule:nonzero;fill:#2c6c8c;fill-opacity:1;"
         d="M 37.765625 59.675781 C 37.835938 59.738281 37.90625 59.800781 37.980469 59.863281 L 39.027344 58.6875 L 38.972656 58.640625 C 38.570312 58.988281 38.167969 59.332031 37.765625 59.675781 M 39.914062 66.027344 C 39.800781 65.996094 39.6875 65.96875 39.574219 65.9375 C 39.496094 66.3125 39.417969 66.683594 39.339844 67.058594 C 39.417969 67.078125 39.5 67.101562 39.578125 67.121094 C 39.691406 66.757812 39.804688 66.394531 39.914062 66.027344 M 38.148438 62.113281 C 38.050781 62.085938 37.949219 62.054688 37.847656 62.023438 C 37.75 62.296875 37.648438 62.570312 37.546875 62.847656 C 37.6875 62.886719 37.828125 62.929688 37.96875 62.96875 C 38.03125 62.683594 38.089844 62.398438 38.148438 62.113281 M 48.421875 36.449219 C 48.441406 37.316406 48.683594 37.609375 49.449219 37.722656 C 49.605469 37.03125 49.269531 36.597656 48.421875 36.449219 M 46.382812 26.078125 C 47.289062 26.679688 48.613281 26.535156 49.148438 25.9375 C 48.214844 25.988281 47.296875 26.03125 46.382812 26.078125 M 70.4375 39.582031 C 69.6875 39.675781 69.472656 40.175781 69.679688 41.355469 C 70.28125 40.933594 70.601562 40.1875 70.4375 39.582031 M 49.257812 23.6875 C 48.257812 24.152344 47.398438 24.554688 46.453125 24.996094 C 47.800781 25.132812 48.90625 24.65625 49.257812 23.6875 M 21.0625 33.363281 C 20.933594 32.789062 20.867188 32.347656 20.730469 31.929688 C 20.679688 31.777344 20.445312 31.554688 20.339844 31.574219 C 20.160156 31.613281 19.890625 31.8125 19.882812 31.953125 C 19.851562 32.429688 19.875 32.921875 19.976562 33.386719 C 20.015625 33.546875 20.347656 33.746094 20.539062 33.742188 C 20.730469 33.734375 20.910156 33.484375 21.0625 33.363281 M 17.59375 30.867188 C 17.652344 31.546875 17.667969 32.195312 17.777344 32.824219 C 17.875 33.398438 18.382812 33.523438 18.855469 33.457031 C 18.964844 33.441406 19.019531 32.933594 19.070312 32.648438 C 19.105469 32.453125 19.125 32.242188 19.082031 32.054688 C 18.859375 31.070312 18.875 30.503906 17.59375 30.867188 M 20.675781 30.207031 C 20.726562 30.289062 20.777344 30.367188 20.828125 30.449219 C 21.070312 30.371094 21.328125 30.320312 21.554688 30.207031 C 22.734375 29.632812 23.886719 28.996094 25.085938 28.464844 C 26.9375 27.648438 28.734375 26.601562 30.882812 26.792969 C 30.945312 26.796875 31.015625 26.675781 31.085938 26.613281 C 30.054688 26.589844 29.011719 26.554688 28.105469 26.886719 C 25.816406 27.722656 23.585938 28.714844 21.34375 29.667969 C 21.089844 29.773438 20.894531 30.023438 20.675781 30.207031 M 30.425781 28.039062 C 29.75 28.480469 28.984375 28.539062 28.179688 28.25 C 28.023438 28.195312 27.808594 28.210938 27.65625 28.273438 C 26.09375 28.929688 24.535156 29.597656 22.984375 30.277344 C 22.640625 30.425781 22.503906 30.667969 22.789062 31.015625 C 22.945312 31.203125 23.023438 31.472656 23.203125 31.617188 C 23.445312 31.800781 23.746094 31.992188 24.03125 32.011719 C 24.515625 32.039062 25.019531 31.980469 25.492188 31.867188 C 26.285156 31.683594 27.058594 31.429688 27.84375 31.203125 C 27.820312 31.109375 27.796875 31.019531 27.777344 30.925781 C 26.511719 31.15625 25.242188 31.386719 23.9375 31.621094 C 23.925781 31.570312 23.925781 31.414062 23.863281 31.277344 C 23.550781 30.582031 23.644531 30.453125 24.394531 30.3125 C 25.386719 30.128906 26.433594 30.019531 27.078125 29.0625 C 27.121094 29.003906 27.269531 29.015625 27.375 28.992188 C 27.425781 29.21875 27.464844 29.402344 27.511719 29.613281 C 28.128906 29.476562 28.863281 29.890625 29.234375 29.050781 C 29.265625 28.976562 29.59375 28.992188 29.773438 29.03125 C 30.351562 29.152344 30.902344 29.191406 31.335938 28.753906 C 31.027344 28.511719 30.742188 28.289062 30.425781 28.039062 M 54.480469 34.539062 C 54.527344 34.609375 54.570312 34.679688 54.613281 34.75 C 54.957031 34.621094 55.34375 34.546875 55.640625 34.34375 C 56.246094 33.933594 56.71875 34.125 57.203125 34.539062 C 57.628906 34.898438 58.054688 35.257812 58.519531 35.5625 C 59.023438 35.890625 59.230469 35.78125 59.332031 35.183594 C 59.425781 34.632812 59.515625 34.078125 59.53125 33.523438 C 59.539062 33.257812 59.433594 32.941406 59.269531 32.734375 C 58.898438 32.253906 58.539062 31.46875 58.519531 30.878906 C 58.519531 30.859375 58.492188 30.84375 58.390625 30.734375 C 57.050781 31.96875 55.59375 33.074219 54.480469 34.539062 M 49.242188 40.742188 C 49.179688 40.753906 49.121094 40.769531 49.058594 40.785156 C 49.027344 39.839844 48.683594 39.207031 47.84375 39.3125 C 47.71875 38.894531 47.6875 38.535156 47.511719 38.269531 C 47.308594 37.960938 46.929688 37.769531 46.714844 37.46875 C 46.179688 36.71875 46.171875 35.667969 45.382812 35.066406 C 45.222656 34.941406 44.90625 34.890625 44.71875 34.960938 C 44.558594 35.023438 44.339844 35.367188 44.386719 35.480469 C 44.746094 36.3125 45.121094 37.152344 45.585938 37.925781 C 46.03125 38.667969 46.535156 39.390625 47.121094 40.019531 C 47.519531 40.453125 48.125 40.683594 48.597656 41.054688 C 49.308594 41.617188 49.707031 41.015625 50.199219 40.695312 C 50.382812 40.574219 50.589844 40.46875 50.796875 40.402344 C 51.238281 40.257812 51.703125 40.15625 51.980469 40.675781 C 52.257812 41.195312 52.214844 41.710938 51.828125 42.175781 C 51.460938 42.617188 51.097656 43.054688 50.71875 43.488281 C 50.621094 43.601562 50.488281 43.679688 50.457031 43.703125 C 50.164062 43 49.898438 42.351562 49.613281 41.652344 C 49.25 42.4375 49.003906 43.097656 48.660156 43.699219 C 48.101562 44.667969 47.464844 45.589844 46.882812 46.546875 C 46.453125 47.253906 46.027344 47.964844 45.652344 48.699219 C 45.566406 48.871094 45.648438 49.164062 45.726562 49.371094 C 45.757812 49.460938 46.054688 49.558594 46.101562 49.511719 C 46.558594 49.089844 47.019531 48.660156 47.410156 48.179688 C 47.519531 48.042969 47.367188 47.722656 47.398438 47.492188 C 47.414062 47.339844 47.503906 47.164062 47.617188 47.058594 C 48.339844 46.382812 49.074219 45.722656 49.816406 45.066406 C 50.011719 44.890625 50.238281 44.742188 50.46875 44.605469 C 50.878906 44.355469 51.164062 44.417969 51.339844 44.917969 C 51.535156 45.476562 51.8125 46.003906 52.003906 46.5625 C 52.125 46.910156 52.160156 47.289062 52.234375 47.652344 C 52.167969 47.796875 52.359375 47.859375 52.390625 47.96875 C 52.4375 48.121094 52.277344 48.371094 52.351562 48.46875 C 52.871094 49.160156 53.363281 49.894531 54 50.457031 C 54.355469 50.769531 55.046875 50.996094 55.472656 50.507812 C 56.253906 49.601562 56.9375 48.609375 57.671875 47.636719 C 57.5625 47.59375 57.523438 47.5625 57.484375 47.5625 C 57.417969 47.5625 57.347656 47.570312 57.285156 47.59375 C 56.011719 48.042969 54.957031 47.648438 54.042969 46.742188 C 53.691406 46.394531 53.371094 46.019531 53.015625 45.632812 C 53.105469 45.558594 53.265625 45.425781 53.433594 45.285156 C 53.253906 44.980469 52.980469 44.71875 52.96875 44.445312 C 52.941406 43.769531 53.015625 43.089844 53.089844 42.417969 C 53.214844 41.308594 53.414062 40.203125 53.5 39.089844 C 53.5625 38.292969 53.511719 37.480469 53.460938 36.679688 C 53.449219 36.484375 53.21875 36.132812 53.113281 36.140625 C 52.859375 36.164062 52.535156 36.292969 52.394531 36.492188 C 52.230469 36.730469 52.21875 37.082031 52.160156 37.386719 C 51.953125 38.492188 51.328125 38.875 50.277344 38.464844 C 49.742188 38.257812 49.464844 38.390625 49.367188 38.925781 C 49.304688 39.273438 49.269531 39.628906 49.246094 39.980469 C 49.226562 40.230469 49.242188 40.488281 49.242188 40.742188 M 29.472656 66.230469 C 29.597656 66.433594 29.71875 66.632812 29.898438 66.925781 C 30.335938 66.214844 30.144531 65.820312 29.902344 65.441406 C 29.492188 64.792969 29.144531 64.128906 29.34375 63.183594 C 29.71875 63.304688 30.097656 63.394531 30.445312 63.550781 C 31.019531 63.800781 31.511719 63.785156 32.09375 63.46875 C 32.894531 63.039062 33.789062 62.78125 34.628906 62.425781 C 34.945312 62.292969 35.230469 62.097656 35.53125 61.929688 C 35.507812 61.875 35.484375 61.820312 35.460938 61.769531 C 35.328125 61.792969 35.175781 61.785156 35.0625 61.847656 C 33.496094 62.722656 31.777344 62.53125 30.132812 62.375 C 28.542969 62.222656 27.386719 59.84375 28.019531 58.371094 C 28.082031 58.222656 28.296875 58.109375 28.464844 58.042969 C 30.101562 57.378906 30.777344 55.660156 30.148438 54.015625 C 29.585938 52.535156 29.175781 50.996094 28.65625 49.496094 C 28.144531 48.015625 27.640625 46.527344 27.011719 45.097656 C 26.824219 44.667969 26.273438 44.339844 25.816406 44.105469 C 24.652344 43.503906 23.441406 42.992188 22.269531 42.410156 C 22.125 42.335938 22.011719 42.042969 22.019531 41.855469 C 22.050781 41.054688 22.09375 40.246094 22.203125 39.449219 C 22.351562 38.363281 22.066406 37.507812 21.265625 37.050781 C 20.429688 36.574219 19.628906 36.71875 18.886719 37.292969 C 18.78125 37.371094 18.644531 37.488281 18.542969 37.476562 C 17.289062 37.300781 16.402344 38.140625 15.363281 38.574219 C 14.421875 38.964844 13.402344 39.183594 12.464844 39.59375 C 10.980469 40.242188 9.464844 40.59375 7.832031 40.5 C 7.265625 40.464844 6.6875 40.683594 6.105469 40.722656 C 2.925781 40.953125 1.488281 39.441406 0.796875 36.402344 C 1.496094 36.402344 2.175781 36.410156 2.855469 36.402344 C 3.277344 36.398438 3.71875 36.449219 4.113281 36.339844 C 5.003906 36.085938 5.824219 36.164062 6.640625 36.585938 C 7.019531 36.777344 7.4375 36.886719 7.832031 37.046875 C 8.222656 37.203125 8.503906 37.085938 8.867188 36.847656 C 9.390625 36.507812 10.011719 36.234375 10.625 36.140625 C 11.367188 36.027344 12.15625 36.050781 12.902344 36.15625 C 14.316406 36.355469 15.617188 36.136719 16.847656 35.414062 C 17.113281 35.257812 17.417969 35.167969 17.707031 35.050781 C 17.695312 35.117188 17.6875 35.1875 17.675781 35.253906 C 18.019531 35.371094 18.351562 35.5625 18.699219 35.589844 C 19.414062 35.644531 20.136719 35.636719 20.851562 35.597656 C 21.128906 35.585938 21.507812 35.484375 21.632812 35.289062 C 21.734375 35.132812 21.605469 34.664062 21.429688 34.539062 C 21.277344 34.429688 20.914062 34.589844 20.652344 34.65625 C 20.453125 34.710938 20.265625 34.808594 20.070312 34.886719 L 19.984375 34.710938 C 20.289062 34.527344 20.59375 34.34375 20.898438 34.160156 C 20.890625 34.128906 20.886719 34.097656 20.882812 34.066406 C 20.261719 34.222656 19.644531 34.414062 19.011719 34.523438 C 18.371094 34.632812 17.710938 34.71875 17.058594 34.71875 C 16.414062 34.714844 15.769531 34.585938 15.125 34.523438 C 14.464844 34.457031 13.808594 34.402344 13.117188 34.339844 C 13.53125 33.453125 14.101562 33.183594 14.824219 33.492188 C 15.429688 33.75 15.925781 33.421875 16.390625 33.152344 C 16.726562 32.957031 17.414062 32.898438 17.195312 32.273438 C 16.992188 31.683594 16.375 31.875 15.953125 31.945312 C 14.84375 32.132812 13.867188 32.640625 13.015625 33.386719 C 12.667969 33.695312 12.296875 33.96875 11.898438 34.285156 C 11.730469 33.625 11.902344 33.292969 12.457031 33.007812 C 13.292969 32.570312 14.054688 31.992188 14.855469 31.480469 C 15.273438 31.214844 15.695312 30.960938 16.128906 30.714844 C 16.777344 30.34375 17.433594 29.988281 18.203125 29.558594 C 17.917969 29.324219 17.761719 29.191406 17.515625 28.984375 C 19.386719 27.476562 21.257812 25.953125 23.15625 24.460938 C 23.53125 24.167969 24.007812 24.0625 24.417969 24.484375 C 24.394531 24.546875 24.394531 24.613281 24.367188 24.625 C 23.339844 25.058594 22.507812 25.738281 21.722656 26.535156 C 21.070312 27.199219 20.273438 27.726562 19.53125 28.308594 C 19.074219 28.667969 18.929688 29.066406 19.441406 29.65625 C 19.84375 29.394531 20.308594 29.175781 20.664062 28.839844 C 21.277344 28.253906 21.800781 27.570312 22.40625 26.972656 C 22.78125 26.605469 23.195312 26.179688 23.667969 26.027344 C 24.730469 25.691406 25.839844 25.492188 26.9375 25.28125 C 27.09375 25.25 27.296875 25.457031 27.625 25.632812 C 27.9375 25.53125 28.460938 25.4375 28.902344 25.195312 C 29.160156 25.050781 29.285156 24.667969 29.472656 24.394531 C 29.21875 24.253906 28.984375 24.0625 28.714844 23.988281 C 28.46875 23.917969 28.1875 23.972656 27.9375 23.972656 C 27.785156 22.847656 28.75 21.765625 29.753906 21.902344 C 29.902344 21.921875 30.09375 22.21875 30.121094 22.410156 C 30.15625 22.636719 30.085938 22.910156 29.980469 23.125 C 29.628906 23.851562 30.160156 24.136719 30.632812 24.398438 C 30.761719 24.472656 31.097656 24.320312 31.25 24.175781 C 32.136719 23.328125 32.964844 22.414062 33.875 21.585938 C 36.929688 18.816406 40.390625 16.71875 44.28125 15.335938 C 44.34375 15.3125 44.410156 15.289062 44.472656 15.277344 C 44.820312 15.214844 45.164062 15.15625 45.523438 15.140625 C 44.15625 15.722656 42.761719 16.253906 41.425781 16.90625 C 40.117188 17.546875 38.839844 18.273438 37.914062 19.429688 C 38.933594 18.871094 39.980469 18.351562 40.972656 17.742188 C 42.257812 16.953125 43.53125 16.148438 45.03125 15.835938 C 45.484375 15.742188 45.953125 15.695312 46.417969 15.6875 C 46.554688 15.683594 46.78125 15.875 46.808594 16.007812 C 46.832031 16.128906 46.664062 16.386719 46.535156 16.421875 C 45.53125 16.714844 44.492188 16.914062 43.503906 17.25 C 42.445312 17.609375 41.429688 18.082031 40.398438 18.511719 C 40.332031 18.542969 40.289062 18.632812 40.273438 18.789062 C 42.492188 17.484375 45.09375 17.601562 47.414062 16.714844 C 47.460938 16.765625 47.507812 16.8125 47.554688 16.863281 C 47.078125 17.332031 46.636719 17.84375 46.109375 18.242188 C 45.894531 18.402344 45.484375 18.34375 45.171875 18.320312 C 44.5625 18.265625 43.9375 18.027344 43.359375 18.117188 C 42.449219 18.257812 41.535156 18.535156 40.886719 19.296875 C 42.417969 21.164062 44.9375 21.261719 45.878906 19.382812 C 45.472656 19.566406 45.175781 19.6875 44.890625 19.832031 C 44.117188 20.226562 43.328125 20.40625 42.511719 19.980469 C 42.21875 19.824219 41.707031 19.695312 41.992188 19.238281 C 42.21875 18.871094 42.652344 18.613281 43.152344 18.851562 C 43.351562 18.945312 43.527344 19.082031 43.757812 19.226562 C 44.15625 18.195312 44.925781 18.808594 45.542969 18.804688 C 45.796875 18.804688 46.054688 19.046875 46.441406 19.246094 C 47.0625 18.820312 47.988281 18.460938 48.15625 17.324219 C 48.1875 17.09375 48.542969 16.910156 48.75 16.703125 C 48.800781 16.734375 48.855469 16.765625 48.90625 16.796875 C 48.847656 17.242188 48.757812 17.6875 48.738281 18.136719 C 48.695312 19.222656 49.015625 19.605469 50.09375 19.722656 C 50.828125 19.800781 51.570312 19.804688 52.304688 19.855469 C 52.527344 19.871094 52.746094 19.925781 53.148438 19.992188 C 52.804688 20.257812 52.625 20.394531 52.453125 20.53125 C 52.820312 21.734375 52.023438 22.625 51.652344 23.617188 C 51.617188 23.707031 51.332031 23.78125 51.203125 23.738281 C 50.78125 23.597656 50.523438 22.839844 50.589844 22.386719 C 50.628906 22.109375 50.554688 21.703125 50.371094 21.527344 C 49.910156 21.085938 49.371094 20.722656 48.839844 20.371094 C 48.671875 20.261719 48.363281 20.171875 48.21875 20.253906 C 47.382812 20.703125 46.574219 21.207031 45.757812 21.703125 C 45.675781 21.753906 45.625 21.867188 45.613281 22.109375 C 45.867188 22.050781 46.144531 22.035156 46.375 21.921875 C 46.875 21.675781 47.339844 21.359375 47.84375 21.117188 C 48.015625 21.039062 48.257812 21.105469 48.464844 21.105469 C 48.445312 21.308594 48.5 21.585938 48.386719 21.699219 C 47.273438 22.828125 45.949219 23.578125 44.394531 23.859375 C 44.332031 23.8125 44.265625 23.761719 44.203125 23.714844 C 44.394531 23.261719 44.574219 22.800781 44.785156 22.359375 C 45.035156 21.835938 44.933594 21.5 44.453125 21.382812 C 44.230469 22.699219 44.207031 22.714844 42.757812 22.773438 C 42.527344 22.78125 42.296875 22.820312 42.070312 22.847656 C 42.066406 22.914062 42.0625 22.980469 42.058594 23.046875 C 42.410156 23.125 42.773438 23.175781 43.113281 23.285156 C 43.296875 23.347656 43.445312 23.515625 43.609375 23.632812 C 43.457031 23.8125 43.335938 24.035156 43.144531 24.15625 C 42.976562 24.269531 42.738281 24.269531 42.625 24.296875 C 42.707031 24.714844 42.875 25.078125 42.816406 25.40625 C 42.742188 25.847656 42.382812 26.003906 41.9375 25.796875 C 41.652344 25.664062 41.363281 25.546875 41.074219 25.414062 C 40.679688 25.234375 40.285156 25.046875 40.179688 25.875 C 39.902344 25.394531 39.933594 24.738281 39.308594 24.96875 C 39.148438 25.554688 38.960938 26.09375 38.867188 26.652344 C 38.835938 26.820312 39.011719 27.121094 39.179688 27.214844 C 39.796875 27.570312 40.457031 27.851562 41.082031 28.191406 C 41.296875 28.308594 41.453125 28.523438 41.710938 28.761719 C 41.464844 28.851562 41.34375 28.9375 41.230469 28.929688 C 39.265625 28.832031 37.300781 28.691406 35.332031 28.625 C 34.617188 28.601562 34.382812 28.257812 34.363281 27.632812 C 34.355469 27.320312 34.359375 27.003906 34.371094 26.691406 C 34.410156 25.785156 34.417969 25.878906 35.324219 25.816406 C 36.269531 25.75 37.074219 25.324219 37.332031 24.175781 C 36.863281 24.023438 36.382812 23.863281 35.902344 23.710938 C 35.199219 23.484375 35.007812 23.179688 35.410156 22.578125 C 35.902344 21.832031 36.539062 21.179688 37.105469 20.484375 C 37.261719 20.292969 37.386719 20.082031 37.527344 19.882812 C 37.476562 19.832031 37.429688 19.777344 37.378906 19.726562 C 37.117188 19.898438 36.828125 20.039062 36.59375 20.242188 C 35.902344 20.839844 35.222656 21.445312 34.570312 22.085938 C 34.394531 22.261719 34.238281 22.570312 34.257812 22.804688 C 34.316406 23.472656 33.941406 23.644531 33.40625 23.773438 C 32.835938 23.90625 32.285156 24.121094 31.730469 24.296875 C 31.734375 24.378906 31.738281 24.464844 31.742188 24.546875 C 31.929688 24.640625 32.15625 24.695312 32.292969 24.835938 C 32.515625 25.070312 32.703125 25.347656 32.867188 25.628906 C 32.953125 25.773438 32.949219 25.964844 33.007812 26.128906 C 33.074219 26.335938 33.164062 26.53125 33.242188 26.730469 C 32.988281 26.769531 32.734375 26.808594 32.367188 26.863281 C 32.378906 27.621094 31.875 28.445312 32.296875 29.40625 C 32.601562 30.097656 31.863281 30.050781 31.425781 30.277344 C 31.398438 30.09375 31.382812 29.960938 31.355469 29.753906 C 30.695312 30.085938 30.050781 30.40625 29.292969 30.789062 L 29.292969 30.128906 C 29.222656 30.105469 29.152344 30.085938 29.082031 30.0625 C 28.9375 30.390625 28.792969 30.722656 28.648438 31.050781 C 28.699219 31.078125 28.75 31.109375 28.800781 31.136719 C 28.566406 31.257812 28.332031 31.375 28.097656 31.496094 C 28.101562 31.523438 28.105469 31.550781 28.109375 31.578125 C 28.238281 31.558594 28.371094 31.558594 28.492188 31.519531 C 31.160156 30.660156 33.929688 30.417969 36.699219 30.191406 C 37.835938 30.09375 38.976562 30.019531 40.113281 29.917969 C 41.101562 29.828125 41.863281 29.390625 42.242188 28.425781 C 42.691406 27.285156 43.136719 26.144531 43.5625 24.996094 C 43.753906 24.484375 44.003906 24.195312 44.640625 24.25 C 45.050781 24.28125 45.492188 24.0625 45.90625 23.917969 C 46.53125 23.699219 47.152344 23.460938 47.761719 23.199219 C 48.078125 23.0625 48.386719 22.886719 48.660156 22.675781 C 49.398438 22.109375 49.871094 22.222656 50.148438 23.109375 C 50.261719 23.46875 50.328125 23.855469 50.34375 24.234375 C 50.375 24.949219 50.382812 25.667969 50.347656 26.382812 C 50.308594 27.242188 49.796875 27.691406 48.96875 27.5 C 47.773438 27.230469 46.601562 26.855469 45.421875 26.523438 C 44.949219 26.390625 44.480469 26.226562 44 26.132812 C 43.847656 26.105469 43.550781 26.21875 43.503906 26.339844 C 43.335938 26.769531 43.203125 27.222656 43.140625 27.679688 C 43.09375 28.011719 43.265625 28.214844 43.667969 28.308594 C 44.378906 28.46875 45.0625 28.75 45.757812 28.980469 C 45.746094 29.050781 45.734375 29.121094 45.722656 29.191406 C 45.171875 29.148438 44.617188 29.128906 44.066406 29.054688 C 43.296875 28.949219 42.605469 28.941406 41.9375 29.519531 C 41.398438 29.984375 40.6875 30.253906 39.914062 30.6875 C 40.230469 30.765625 40.425781 30.832031 40.625 30.859375 C 42.511719 31.113281 44.398438 31.375 46.289062 31.589844 C 46.554688 31.621094 46.914062 31.488281 47.117188 31.304688 C 49.078125 29.53125 51.019531 27.738281 52.957031 25.941406 C 53.949219 25.015625 54.894531 24.042969 55.914062 23.144531 C 56.199219 22.894531 56.730469 22.917969 57.019531 22.667969 C 57.5625 22.203125 57.953125 22.121094 58.546875 22.632812 C 58.800781 22.851562 59.363281 22.746094 59.785156 22.726562 C 59.960938 22.722656 60.132812 22.566406 60.425781 22.5625 C 60.304688 22.777344 60.183594 22.988281 60.070312 23.203125 C 59.96875 23.40625 59.878906 23.617188 59.785156 23.824219 C 60 23.878906 60.214844 23.933594 60.476562 24 C 60.402344 24.203125 60.242188 24.445312 60.253906 24.683594 C 60.261719 24.882812 60.472656 25.070312 60.644531 25.34375 C 60.023438 26.066406 60.210938 26.882812 60.589844 27.71875 C 60.675781 27.902344 60.644531 28.15625 60.617188 28.371094 C 60.207031 31.480469 59.792969 34.585938 59.375 37.691406 C 59.238281 38.710938 59.089844 39.730469 58.949219 40.75 C 58.933594 40.859375 58.898438 40.96875 58.902344 41.082031 C 58.9375 41.835938 58.976562 42.59375 59.019531 43.425781 C 58.921875 43.378906 58.976562 43.421875 58.992188 43.410156 C 59.859375 42.714844 60.800781 42.09375 61.476562 41.1875 C 61.652344 40.953125 61.785156 40.636719 61.816406 40.34375 C 61.933594 39.234375 62 38.117188 62.082031 37.003906 C 62.097656 36.792969 62.082031 36.578125 62.082031 36.363281 C 62.015625 36.324219 61.945312 36.28125 61.875 36.238281 C 61.351562 36.746094 60.832031 37.253906 60.273438 37.796875 C 60.082031 36.570312 63.851562 32.164062 65.789062 31.382812 C 64.78125 32.734375 65.230469 34.335938 64.976562 35.925781 C 64.414062 35.613281 63.941406 35.339844 63.457031 35.082031 C 62.855469 34.761719 62.683594 34.851562 62.550781 35.523438 C 62.535156 35.613281 62.519531 35.703125 62.503906 35.789062 C 62.242188 37.445312 62.617188 38.085938 64.214844 38.546875 C 64.515625 38.632812 64.882812 38.5 65.320312 38.460938 C 64.90625 38.992188 64.539062 39.464844 64.167969 39.9375 C 64.234375 40.003906 64.300781 40.070312 64.367188 40.136719 L 65.015625 39.769531 C 65.671875 39.394531 66.304688 38.960938 66.996094 38.667969 C 67.351562 38.515625 67.808594 38.589844 68.21875 38.601562 C 69.398438 38.640625 70.464844 38.265625 71.472656 37.714844 C 71.625 37.628906 71.695312 37.292969 71.703125 37.070312 C 71.710938 36.6875 71.890625 36.5 72.226562 36.570312 C 72.316406 36.585938 72.410156 36.96875 72.371094 37.160156 C 72.113281 38.410156 72.113281 39.601562 72.890625 40.707031 C 72.980469 40.835938 72.9375 41.1875 72.820312 41.316406 C 72.371094 41.816406 71.816406 42.21875 71.398438 42.738281 C 70.476562 43.878906 69.632812 45.082031 68.722656 46.230469 C 68.257812 46.816406 67.757812 47.382812 67.199219 47.875 C 66.367188 48.613281 65.492188 49.304688 64.601562 49.96875 C 63.625 50.699219 63.226562 51.792969 62.789062 52.828125 C 62.285156 54.015625 62.066406 55.324219 61.558594 56.511719 C 60.75 58.40625 60.035156 60.367188 58.25 61.6875 C 57.167969 62.488281 56.382812 63.605469 55.816406 64.84375 C 55.53125 65.460938 55.097656 65.488281 54.546875 65.230469 C 53.476562 64.730469 52.453125 64.113281 51.203125 64.109375 C 49.828125 64.101562 48.59375 64.207031 47.679688 65.523438 C 46.773438 66.832031 45.835938 68.058594 45.890625 69.753906 C 45.898438 70 45.792969 70.300781 45.636719 70.5 C 44.679688 71.742188 43.671875 72.945312 42.308594 73.785156 C 42.15625 73.878906 42.019531 73.992188 41.882812 74.109375 C 41.40625 74.503906 40.953125 75.210938 40.460938 75.238281 C 39.371094 75.300781 38.210938 75.167969 37.171875 74.832031 C 36.230469 74.527344 35.214844 74.167969 34.582031 73.25 C 34.441406 73.050781 34.074219 72.925781 33.808594 72.917969 C 33.175781 72.894531 32.902344 72.527344 32.609375 72.023438 C 31.976562 70.945312 31.222656 69.9375 30.59375 68.851562 C 30.121094 68.027344 29.765625 67.136719 29.359375 66.273438 C 29.398438 66.257812 29.433594 66.246094 29.472656 66.230469 "
         id="path4" />
    </g>
    <g
       clip-rule="nonzero"
       clip-path="url(#7527af9f57)"
       id="g5">
      <path
         style=" stroke:none;fill-rule:nonzero;fill:#2c6c8c;fill-opacity:1;"
         d="M 52.304688 10.703125 C 51.53125 10.792969 50.898438 10.875 50.269531 10.941406 C 46.527344 11.351562 42.8125 11.929688 39.242188 13.164062 C 37.050781 13.917969 35.039062 15.039062 33.199219 16.464844 C 32.816406 16.761719 32.457031 17.21875 31.84375 16.910156 C 31.757812 16.867188 31.542969 16.984375 31.4375 17.082031 C 30.984375 17.511719 30.519531 17.9375 30.109375 18.40625 C 29.613281 18.976562 29.460938 18.992188 28.898438 18.304688 C 29.175781 18.085938 29.429688 17.832031 29.726562 17.652344 C 31.832031 16.390625 33.921875 15.109375 36.0625 13.914062 C 36.773438 13.515625 37.621094 13.367188 38.386719 13.070312 C 39.261719 12.726562 40.097656 12.296875 40.984375 11.996094 C 41.847656 11.703125 42.75 11.523438 43.640625 11.308594 C 44.445312 11.113281 45.246094 10.835938 46.058594 10.777344 C 48.039062 10.636719 50.027344 10.601562 52.011719 10.527344 C 52.058594 10.527344 52.109375 10.585938 52.304688 10.703125 "
         id="path5" />
    </g>
    <path
       style=" stroke:none;fill-rule:nonzero;fill:#2c6c8c;fill-opacity:1;"
       d="M 42.792969 13.640625 C 42.417969 13.90625 42.132812 14.109375 41.761719 14.375 C 42.117188 14.539062 42.347656 14.648438 42.664062 14.796875 C 42.066406 15.128906 41.539062 15.425781 41.011719 15.714844 C 40.328125 16.09375 39.636719 16.464844 38.957031 16.851562 C 38.414062 17.15625 37.910156 17.101562 37.230469 16.679688 C 37.675781 16.308594 38.011719 15.972656 38.402344 15.71875 C 38.765625 15.480469 39.1875 15.328125 39.527344 15.007812 C 38.574219 14.894531 37.753906 15.261719 36.933594 15.585938 C 36.09375 15.921875 35.277344 16.320312 34.449219 16.6875 C 34.421875 16.636719 34.394531 16.585938 34.367188 16.53125 C 34.9375 16.222656 35.5 15.898438 36.078125 15.601562 C 36.960938 15.148438 37.820312 14.613281 38.753906 14.289062 C 39.886719 13.902344 41.082031 13.691406 42.253906 13.429688 C 42.386719 13.398438 42.558594 13.542969 42.792969 13.640625 "
       id="path6" />
    <path
       style=" stroke:none;fill-rule:nonzero;fill:#2c6c8c;fill-opacity:1;"
       d="M 51.183594 14.136719 C 51.277344 13.597656 51.398438 13.132812 51.425781 12.664062 C 51.453125 12.203125 51.683594 12.195312 52.050781 12.21875 C 52.609375 12.25 53.175781 12.199219 53.738281 12.214844 C 54.019531 12.222656 54.296875 12.292969 54.574219 12.355469 C 54.847656 12.417969 55.113281 12.511719 55.542969 12.636719 C 55.296875 13.316406 55.113281 14.054688 54.746094 14.691406 C 54.621094 14.902344 54.003906 14.960938 53.65625 14.886719 C 52.796875 14.691406 51.964844 14.378906 51.183594 14.136719 "
       id="path7" />
    <path
       style=" stroke:none;fill-rule:nonzero;fill:#2c6c8c;fill-opacity:1;"
       d="M 64.40625 25.632812 C 64.40625 27.058594 64.40625 28.394531 64.40625 29.726562 C 64.402344 29.789062 64.386719 29.871094 64.34375 29.910156 C 63.589844 30.589844 62.832031 31.265625 62.035156 31.976562 C 61.953125 31.175781 63.863281 25.992188 64.40625 25.632812 "
       id="path8" />
    <path
       style=" stroke:none;fill-rule:nonzero;fill:#2c6c8c;fill-opacity:1;"
       d="M 35.636719 18.917969 L 31.476562 22.542969 C 31.429688 22.523438 31.382812 22.503906 31.335938 22.484375 C 31.433594 22.140625 31.484375 21.773438 31.636719 21.453125 C 31.984375 20.707031 32.390625 19.988281 32.761719 19.25 C 33.066406 18.644531 33.511719 18.335938 34.21875 18.46875 C 34.695312 18.558594 35.179688 18.609375 35.660156 18.675781 C 35.652344 18.753906 35.644531 18.835938 35.636719 18.917969 "
       id="path9" />
    <path
       style=" stroke:none;fill-rule:nonzero;fill:#2c6c8c;fill-opacity:1;"
       d="M 50.519531 17.773438 C 50.820312 17.753906 51.003906 17.742188 51.285156 17.726562 C 50.980469 18.1875 50.917969 18.796875 50.226562 18.617188 C 49.664062 18.46875 49.40625 17.71875 49.644531 17.03125 C 49.851562 16.429688 50.15625 16.308594 50.898438 16.558594 C 50.847656 16.738281 50.796875 16.925781 50.742188 17.109375 C 50.683594 17.296875 50.617188 17.484375 50.519531 17.773438 "
       id="path10" />
    <path
       style=" stroke:none;fill-rule:nonzero;fill:#2c6c8c;fill-opacity:1;"
       d="M 15.414062 29.082031 C 16.902344 27.851562 18.390625 26.625 19.878906 25.394531 C 19.929688 25.457031 19.984375 25.523438 20.035156 25.585938 C 18.558594 26.824219 17.355469 28.386719 15.582031 29.265625 C 15.523438 29.203125 15.46875 29.144531 15.414062 29.082031 "
       id="path11" />
    <path
       style=" stroke:none;fill-rule:nonzero;fill:#2c6c8c;fill-opacity:1;"
       d="M 66.269531 17.347656 C 67.558594 17.828125 67.855469 18.265625 67.902344 20.011719 C 67.335938 19.089844 66.832031 18.265625 66.269531 17.347656 "
       id="path12" />
    <path
       style=" stroke:none;fill-rule:nonzero;fill:#2c6c8c;fill-opacity:1;"
       d="M 31.8125 18.617188 C 31.332031 19.457031 31.214844 20.539062 30.199219 21.023438 C 30.367188 19.976562 31.03125 19.253906 31.8125 18.617188 "
       id="path13" />
    <path
       style=" stroke:none;fill-rule:nonzero;fill:#2c6c8c;fill-opacity:1;"
       d="M 8.867188 35.136719 C 9.585938 34.527344 9.800781 34.527344 10.578125 35.078125 C 10.015625 35.824219 9.777344 35.839844 8.867188 35.136719 "
       id="path14" />
    <path
       style=" stroke:none;fill-rule:nonzero;fill:#2c6c8c;fill-opacity:1;"
       d="M 27.890625 21.402344 C 27.527344 22.148438 27.054688 22.480469 26.445312 22.257812 C 26.933594 21.890625 27.347656 21.570312 27.765625 21.253906 C 27.804688 21.304688 27.847656 21.355469 27.890625 21.402344 "
       id="path15" />
    <path
       style=" stroke:none;fill-rule:nonzero;fill:#2c6c8c;fill-opacity:1;"
       d="M 34.40625 29.210938 L 35.847656 29.210938 C 35.847656 29.28125 35.851562 29.347656 35.851562 29.417969 C 35.378906 29.78125 34.886719 29.609375 34.40625 29.210938 "
       id="path16" />
    <path
       style=" stroke:none;fill-rule:nonzero;fill:#2c6c8c;fill-opacity:1;"
       d="M 35.65625 24.367188 C 35.257812 24.351562 34.855469 24.332031 34.457031 24.316406 C 34.457031 24.230469 34.460938 24.144531 34.460938 24.0625 C 34.863281 23.734375 35.265625 23.867188 35.671875 24.082031 C 35.664062 24.175781 35.660156 24.273438 35.65625 24.367188 "
       id="path17" />
    <path
       style=" stroke:none;fill-rule:nonzero;fill:#2c6c8c;fill-opacity:1;"
       d="M 63.796875 15.855469 C 64.175781 16.074219 64.554688 16.296875 65.074219 16.601562 C 64.183594 16.941406 64.003906 16.375 63.691406 16.042969 C 63.726562 15.980469 63.761719 15.917969 63.796875 15.855469 "
       id="path18" />
    <g
       style="fill:#2c6c8c;fill-opacity:1;"
       id="g23">
      <g
         transform="translate(73.287605, 47.525322)"
         id="g19">
        <path
           style="stroke:none"
           d="M 4.0625 0 L 2.1875 0 L 0.234375 -8.515625 L 1.90625 -8.515625 L 3.203125 -2.53125 L 3.34375 -2.53125 L 4.859375 -8.515625 L 6.296875 -8.515625 L 7.859375 -2.53125 L 8 -2.53125 L 9.296875 -8.515625 L 10.921875 -8.515625 L 8.96875 0 L 7.078125 0 L 5.59375 -5.484375 L 5.46875 -5.484375 Z M 4.0625 0 "
           id="path19" />
      </g>
      <g
         transform="translate(84.429625, 47.525322)"
         id="g20">
        <path
           style="stroke:none"
           d="M 0.921875 0 L 0.921875 -9 L 2.53125 -9 L 2.53125 -5.578125 L 2.65625 -5.5625 C 2.875 -5.875 3.132812 -6.113281 3.4375 -6.28125 C 3.75 -6.457031 4.125 -6.546875 4.5625 -6.546875 C 5.976562 -6.546875 6.6875 -5.742188 6.6875 -4.140625 L 6.6875 0 L 5.078125 0 L 5.078125 -3.921875 C 5.078125 -4.367188 4.988281 -4.691406 4.8125 -4.890625 C 4.644531 -5.085938 4.375 -5.1875 4 -5.1875 C 3.550781 -5.1875 3.191406 -5.035156 2.921875 -4.734375 C 2.660156 -4.429688 2.53125 -3.960938 2.53125 -3.328125 L 2.53125 0 Z M 0.921875 0 "
           id="path20" />
      </g>
      <g
         transform="translate(91.950779, 47.525322)"
         id="g21">
        <path
           style="stroke:none"
           d="M 6.34375 -2.84375 L 2.21875 -2.84375 C 2.257812 -2.289062 2.414062 -1.882812 2.6875 -1.625 C 2.96875 -1.375 3.34375 -1.25 3.8125 -1.25 C 4.175781 -1.25 4.472656 -1.316406 4.703125 -1.453125 C 4.929688 -1.585938 5.113281 -1.796875 5.25 -2.078125 L 5.375 -2.078125 L 6.453125 -1.390625 C 6.242188 -0.941406 5.925781 -0.578125 5.5 -0.296875 C 5.070312 -0.015625 4.507812 0.125 3.8125 0.125 C 3.144531 0.125 2.566406 0 2.078125 -0.25 C 1.597656 -0.507812 1.226562 -0.882812 0.96875 -1.375 C 0.707031 -1.875 0.578125 -2.484375 0.578125 -3.203125 C 0.578125 -3.929688 0.710938 -4.546875 0.984375 -5.046875 C 1.265625 -5.546875 1.640625 -5.921875 2.109375 -6.171875 C 2.578125 -6.421875 3.101562 -6.546875 3.6875 -6.546875 C 4.59375 -6.546875 5.285156 -6.300781 5.765625 -5.8125 C 6.253906 -5.332031 6.5 -4.628906 6.5 -3.703125 C 6.5 -3.367188 6.488281 -3.109375 6.46875 -2.921875 Z M 4.953125 -3.890625 C 4.941406 -4.378906 4.828125 -4.734375 4.609375 -4.953125 C 4.398438 -5.179688 4.09375 -5.296875 3.6875 -5.296875 C 2.875 -5.296875 2.394531 -4.828125 2.25 -3.890625 Z M 4.953125 -3.890625 "
           id="path21" />
      </g>
      <g
         transform="translate(98.930549, 47.525322)"
         id="g22">
        <path
           style="stroke:none"
           d="M 0.921875 0 L 0.921875 -6.421875 L 2.484375 -6.421875 L 2.484375 -5.46875 L 2.609375 -5.4375 C 2.765625 -5.800781 2.96875 -6.066406 3.21875 -6.234375 C 3.476562 -6.398438 3.785156 -6.484375 4.140625 -6.484375 C 4.503906 -6.484375 4.785156 -6.421875 4.984375 -6.296875 L 4.703125 -4.90625 L 4.578125 -4.875 C 4.472656 -4.914062 4.375 -4.945312 4.28125 -4.96875 C 4.1875 -4.988281 4.066406 -5 3.921875 -5 C 3.472656 -5 3.128906 -4.835938 2.890625 -4.515625 C 2.648438 -4.203125 2.53125 -3.695312 2.53125 -3 L 2.53125 0 Z M 0.921875 0 "
           id="path22" />
      </g>
    </g>
    <g
       style="fill:#2c6c8c;fill-opacity:1;"
       id="g27">
      <g
         transform="translate(103.797179, 47.525322)"
         id="g24">
        <path
           style="stroke:none"
           d="M 6.34375 -2.84375 L 2.21875 -2.84375 C 2.257812 -2.289062 2.414062 -1.882812 2.6875 -1.625 C 2.96875 -1.375 3.34375 -1.25 3.8125 -1.25 C 4.175781 -1.25 4.472656 -1.316406 4.703125 -1.453125 C 4.929688 -1.585938 5.113281 -1.796875 5.25 -2.078125 L 5.375 -2.078125 L 6.453125 -1.390625 C 6.242188 -0.941406 5.925781 -0.578125 5.5 -0.296875 C 5.070312 -0.015625 4.507812 0.125 3.8125 0.125 C 3.144531 0.125 2.566406 0 2.078125 -0.25 C 1.597656 -0.507812 1.226562 -0.882812 0.96875 -1.375 C 0.707031 -1.875 0.578125 -2.484375 0.578125 -3.203125 C 0.578125 -3.929688 0.710938 -4.546875 0.984375 -5.046875 C 1.265625 -5.546875 1.640625 -5.921875 2.109375 -6.171875 C 2.578125 -6.421875 3.101562 -6.546875 3.6875 -6.546875 C 4.59375 -6.546875 5.285156 -6.300781 5.765625 -5.8125 C 6.253906 -5.332031 6.5 -4.628906 6.5 -3.703125 C 6.5 -3.367188 6.488281 -3.109375 6.46875 -2.921875 Z M 4.953125 -3.890625 C 4.941406 -4.378906 4.828125 -4.734375 4.609375 -4.953125 C 4.398438 -5.179688 4.09375 -5.296875 3.6875 -5.296875 C 2.875 -5.296875 2.394531 -4.828125 2.25 -3.890625 Z M 4.953125 -3.890625 "
           id="path23" />
      </g>
      <g
         transform="translate(110.77695, 47.525322)"
         id="g25">
        <path
           style="stroke:none"
           d=""
           id="path24" />
      </g>
      <g
         transform="translate(113.58865, 47.525322)"
         id="g26">
        <path
           style="stroke:none"
           d="M 2.78125 -3.734375 L 2.78125 -1.40625 L 6.859375 -1.40625 L 6.859375 0 L 1.109375 0 L 1.109375 -8.515625 L 6.765625 -8.515625 L 6.765625 -7.109375 L 2.78125 -7.109375 L 2.78125 -5.109375 L 6.265625 -5.109375 L 6.265625 -3.734375 Z M 2.78125 -3.734375 "
           id="path25" />
      </g>
    </g>
    <g
       style="fill:#2c6c8c;fill-opacity:1;"
       id="g29">
      <g
         transform="translate(120.760525, 47.525322)"
         id="g28">
        <path
           style="stroke:none"
           d="M 4.421875 0 L 2.5 0 L 0.125 -6.421875 L 1.8125 -6.421875 L 3.40625 -1.84375 L 3.546875 -1.84375 L 5.140625 -6.421875 L 6.78125 -6.421875 Z M 4.421875 0 "
           id="path27" />
      </g>
    </g>
    <g
       style="fill:#2c6c8c;fill-opacity:1;"
       id="g32">
      <g
         transform="translate(127.54237, 47.525322)"
         id="g30">
        <path
           style="stroke:none"
           d="M 6.34375 -2.84375 L 2.21875 -2.84375 C 2.257812 -2.289062 2.414062 -1.882812 2.6875 -1.625 C 2.96875 -1.375 3.34375 -1.25 3.8125 -1.25 C 4.175781 -1.25 4.472656 -1.316406 4.703125 -1.453125 C 4.929688 -1.585938 5.113281 -1.796875 5.25 -2.078125 L 5.375 -2.078125 L 6.453125 -1.390625 C 6.242188 -0.941406 5.925781 -0.578125 5.5 -0.296875 C 5.070312 -0.015625 4.507812 0.125 3.8125 0.125 C 3.144531 0.125 2.566406 0 2.078125 -0.25 C 1.597656 -0.507812 1.226562 -0.882812 0.96875 -1.375 C 0.707031 -1.875 0.578125 -2.484375 0.578125 -3.203125 C 0.578125 -3.929688 0.710938 -4.546875 0.984375 -5.046875 C 1.265625 -5.546875 1.640625 -5.921875 2.109375 -6.171875 C 2.578125 -6.421875 3.101562 -6.546875 3.6875 -6.546875 C 4.59375 -6.546875 5.285156 -6.300781 5.765625 -5.8125 C 6.253906 -5.332031 6.5 -4.628906 6.5 -3.703125 C 6.5 -3.367188 6.488281 -3.109375 6.46875 -2.921875 Z M 4.953125 -3.890625 C 4.941406 -4.378906 4.828125 -4.734375 4.609375 -4.953125 C 4.398438 -5.179688 4.09375 -5.296875 3.6875 -5.296875 C 2.875 -5.296875 2.394531 -4.828125 2.25 -3.890625 Z M 4.953125 -3.890625 "
           id="path29" />
      </g>
      <g
         transform="translate(134.522141, 47.525322)"
         id="g31">
        <path
           style="stroke:none"
           d="M 0.921875 0 L 0.921875 -6.421875 L 2.484375 -6.421875 L 2.484375 -5.46875 L 2.609375 -5.4375 C 2.765625 -5.800781 2.96875 -6.066406 3.21875 -6.234375 C 3.476562 -6.398438 3.785156 -6.484375 4.140625 -6.484375 C 4.503906 -6.484375 4.785156 -6.421875 4.984375 -6.296875 L 4.703125 -4.90625 L 4.578125 -4.875 C 4.472656 -4.914062 4.375 -4.945312 4.28125 -4.96875 C 4.1875 -4.988281 4.066406 -5 3.921875 -5 C 3.472656 -5 3.128906 -4.835938 2.890625 -4.515625 C 2.648438 -4.203125 2.53125 -3.695312 2.53125 -3 L 2.53125 0 Z M 0.921875 0 "
           id="path30" />
      </g>
    </g>
    <g
       style="fill:#2c6c8c;fill-opacity:1;"
       id="g48">
      <g
         transform="translate(139.639087, 47.525322)"
         id="g33">
        <path
           style="stroke:none"
           d="M 1.421875 2.71875 C 1.140625 2.71875 0.890625 2.695312 0.671875 2.65625 C 0.453125 2.613281 0.269531 2.554688 0.125 2.484375 L 0.390625 1.1875 L 0.484375 1.15625 C 0.585938 1.207031 0.707031 1.25 0.84375 1.28125 C 0.988281 1.3125 1.140625 1.328125 1.296875 1.328125 C 1.554688 1.328125 1.769531 1.289062 1.9375 1.21875 C 2.113281 1.15625 2.257812 1.039062 2.375 0.875 C 2.5 0.71875 2.609375 0.503906 2.703125 0.234375 L 0.140625 -6.421875 L 1.828125 -6.421875 L 3.421875 -1.953125 L 3.5625 -1.953125 L 5.109375 -6.421875 L 6.765625 -6.421875 L 4.171875 0.40625 C 3.972656 0.957031 3.75 1.398438 3.5 1.734375 C 3.25 2.066406 2.957031 2.3125 2.625 2.46875 C 2.289062 2.632812 1.890625 2.71875 1.421875 2.71875 Z M 1.421875 2.71875 "
           id="path32" />
      </g>
      <g
         transform="translate(146.531538, 47.525322)"
         id="g34">
        <path
           style="stroke:none"
           d=""
           id="path33" />
      </g>
      <g
         transform="translate(149.343239, 47.525322)"
         id="g35">
        <path
           style="stroke:none"
           d="M 1.109375 0 L 1.109375 -8.515625 L 4.515625 -8.515625 C 5.398438 -8.515625 6.066406 -8.3125 6.515625 -7.90625 C 6.960938 -7.5 7.1875 -6.9375 7.1875 -6.21875 C 7.1875 -5.707031 7.054688 -5.285156 6.796875 -4.953125 C 6.535156 -4.617188 6.144531 -4.367188 5.625 -4.203125 L 5.625 -4.078125 C 5.894531 -3.960938 6.109375 -3.789062 6.265625 -3.5625 C 6.429688 -3.332031 6.585938 -2.988281 6.734375 -2.53125 L 7.59375 0 L 5.859375 0 L 5.03125 -2.546875 C 4.945312 -2.796875 4.847656 -2.992188 4.734375 -3.140625 C 4.628906 -3.285156 4.492188 -3.390625 4.328125 -3.453125 C 4.171875 -3.515625 3.957031 -3.546875 3.6875 -3.546875 L 2.78125 -3.546875 L 2.78125 0 Z M 4.3125 -4.875 C 5.132812 -4.875 5.546875 -5.253906 5.546875 -6.015625 C 5.546875 -6.785156 5.132812 -7.171875 4.3125 -7.171875 L 2.78125 -7.171875 L 2.78125 -4.875 Z M 4.3125 -4.875 "
           id="path34" />
      </g>
      <g
         transform="translate(157.300992, 47.525322)"
         id="g36">
        <path
           style="stroke:none"
           d="M 1.734375 -7.1875 C 1.441406 -7.1875 1.203125 -7.273438 1.015625 -7.453125 C 0.835938 -7.628906 0.75 -7.859375 0.75 -8.140625 C 0.75 -8.410156 0.835938 -8.632812 1.015625 -8.8125 C 1.203125 -8.988281 1.441406 -9.078125 1.734375 -9.078125 C 1.921875 -9.078125 2.085938 -9.035156 2.234375 -8.953125 C 2.390625 -8.878906 2.507812 -8.769531 2.59375 -8.625 C 2.675781 -8.476562 2.71875 -8.316406 2.71875 -8.140625 C 2.71875 -7.953125 2.675781 -7.785156 2.59375 -7.640625 C 2.507812 -7.503906 2.390625 -7.394531 2.234375 -7.3125 C 2.085938 -7.226562 1.921875 -7.1875 1.734375 -7.1875 Z M 0.921875 0 L 0.921875 -6.421875 L 2.53125 -6.421875 L 2.53125 0 Z M 0.921875 0 "
           id="path35" />
      </g>
      <g
         transform="translate(160.75886, 47.525322)"
         id="g37">
        <path
           style="stroke:none"
           d="M 3.171875 0.125 C 2.660156 0.125 2.207031 0.00390625 1.8125 -0.234375 C 1.425781 -0.484375 1.125 -0.859375 0.90625 -1.359375 C 0.6875 -1.859375 0.578125 -2.472656 0.578125 -3.203125 C 0.578125 -3.941406 0.6875 -4.554688 0.90625 -5.046875 C 1.132812 -5.546875 1.453125 -5.921875 1.859375 -6.171875 C 2.265625 -6.421875 2.726562 -6.546875 3.25 -6.546875 C 3.65625 -6.546875 4.003906 -6.472656 4.296875 -6.328125 C 4.585938 -6.191406 4.832031 -5.976562 5.03125 -5.6875 L 5.15625 -5.71875 L 5.15625 -9 L 6.765625 -9 L 6.765625 0 L 5.15625 0 L 5.15625 -0.828125 L 5.03125 -0.859375 C 4.851562 -0.554688 4.609375 -0.316406 4.296875 -0.140625 C 3.992188 0.0351562 3.617188 0.125 3.171875 0.125 Z M 3.703125 -1.25 C 4.148438 -1.25 4.503906 -1.410156 4.765625 -1.734375 C 5.035156 -2.054688 5.171875 -2.546875 5.171875 -3.203125 C 5.171875 -3.867188 5.035156 -4.363281 4.765625 -4.6875 C 4.503906 -5.007812 4.148438 -5.171875 3.703125 -5.171875 C 3.222656 -5.171875 2.859375 -5.007812 2.609375 -4.6875 C 2.359375 -4.375 2.234375 -3.878906 2.234375 -3.203125 C 2.234375 -2.523438 2.359375 -2.03125 2.609375 -1.71875 C 2.859375 -1.40625 3.222656 -1.25 3.703125 -1.25 Z M 3.703125 -1.25 "
           id="path36" />
      </g>
      <g
         transform="translate(168.454654, 47.525322)"
         id="g38">
        <path
           style="stroke:none"
           d="M 6.34375 -2.84375 L 2.21875 -2.84375 C 2.257812 -2.289062 2.414062 -1.882812 2.6875 -1.625 C 2.96875 -1.375 3.34375 -1.25 3.8125 -1.25 C 4.175781 -1.25 4.472656 -1.316406 4.703125 -1.453125 C 4.929688 -1.585938 5.113281 -1.796875 5.25 -2.078125 L 5.375 -2.078125 L 6.453125 -1.390625 C 6.242188 -0.941406 5.925781 -0.578125 5.5 -0.296875 C 5.070312 -0.015625 4.507812 0.125 3.8125 0.125 C 3.144531 0.125 2.566406 0 2.078125 -0.25 C 1.597656 -0.507812 1.226562 -0.882812 0.96875 -1.375 C 0.707031 -1.875 0.578125 -2.484375 0.578125 -3.203125 C 0.578125 -3.929688 0.710938 -4.546875 0.984375 -5.046875 C 1.265625 -5.546875 1.640625 -5.921875 2.109375 -6.171875 C 2.578125 -6.421875 3.101562 -6.546875 3.6875 -6.546875 C 4.59375 -6.546875 5.285156 -6.300781 5.765625 -5.8125 C 6.253906 -5.332031 6.5 -4.628906 6.5 -3.703125 C 6.5 -3.367188 6.488281 -3.109375 6.46875 -2.921875 Z M 4.953125 -3.890625 C 4.941406 -4.378906 4.828125 -4.734375 4.609375 -4.953125 C 4.398438 -5.179688 4.09375 -5.296875 3.6875 -5.296875 C 2.875 -5.296875 2.394531 -4.828125 2.25 -3.890625 Z M 4.953125 -3.890625 "
           id="path37" />
      </g>
      <g
         transform="translate(175.434425, 47.525322)"
         id="g39">
        <path
           style="stroke:none"
           d="M 0.921875 0 L 0.921875 -6.421875 L 2.484375 -6.421875 L 2.484375 -5.46875 L 2.609375 -5.4375 C 2.765625 -5.800781 2.96875 -6.066406 3.21875 -6.234375 C 3.476562 -6.398438 3.785156 -6.484375 4.140625 -6.484375 C 4.503906 -6.484375 4.785156 -6.421875 4.984375 -6.296875 L 4.703125 -4.90625 L 4.578125 -4.875 C 4.472656 -4.914062 4.375 -4.945312 4.28125 -4.96875 C 4.1875 -4.988281 4.066406 -5 3.921875 -5 C 3.472656 -5 3.128906 -4.835938 2.890625 -4.515625 C 2.648438 -4.203125 2.53125 -3.695312 2.53125 -3 L 2.53125 0 Z M 0.921875 0 "
           id="path38" />
      </g>
      <g
         transform="translate(180.469873, 47.525322)"
         id="g40">
        <path
           style="stroke:none"
           d=""
           id="path39" />
      </g>
      <g
         transform="translate(183.281573, 47.525322)"
         id="g41">
        <path
           style="stroke:none"
           d="M 1.109375 0 L 1.109375 -8.515625 L 4.734375 -8.515625 C 5.265625 -8.515625 5.707031 -8.429688 6.0625 -8.265625 C 6.425781 -8.097656 6.703125 -7.863281 6.890625 -7.5625 C 7.078125 -7.257812 7.171875 -6.898438 7.171875 -6.484375 C 7.171875 -6.109375 7.078125 -5.773438 6.890625 -5.484375 C 6.710938 -5.191406 6.453125 -4.960938 6.109375 -4.796875 L 6.109375 -4.671875 C 6.648438 -4.523438 7.0625 -4.269531 7.34375 -3.90625 C 7.632812 -3.539062 7.78125 -3.085938 7.78125 -2.546875 C 7.78125 -1.734375 7.535156 -1.101562 7.046875 -0.65625 C 6.554688 -0.21875 5.828125 0 4.859375 0 Z M 4.390625 -5.109375 C 5.171875 -5.109375 5.5625 -5.460938 5.5625 -6.171875 C 5.5625 -6.535156 5.460938 -6.804688 5.265625 -6.984375 C 5.078125 -7.160156 4.785156 -7.25 4.390625 -7.25 L 2.78125 -7.25 L 2.78125 -5.109375 Z M 4.703125 -1.328125 C 5.628906 -1.328125 6.09375 -1.75 6.09375 -2.59375 C 6.09375 -3.4375 5.628906 -3.859375 4.703125 -3.859375 L 2.78125 -3.859375 L 2.78125 -1.328125 Z M 4.703125 -1.328125 "
           id="path40" />
      </g>
      <g
         transform="translate(191.60607, 47.525322)"
         id="g42">
        <path
           style="stroke:none"
           d="M 6.34375 -2.84375 L 2.21875 -2.84375 C 2.257812 -2.289062 2.414062 -1.882812 2.6875 -1.625 C 2.96875 -1.375 3.34375 -1.25 3.8125 -1.25 C 4.175781 -1.25 4.472656 -1.316406 4.703125 -1.453125 C 4.929688 -1.585938 5.113281 -1.796875 5.25 -2.078125 L 5.375 -2.078125 L 6.453125 -1.390625 C 6.242188 -0.941406 5.925781 -0.578125 5.5 -0.296875 C 5.070312 -0.015625 4.507812 0.125 3.8125 0.125 C 3.144531 0.125 2.566406 0 2.078125 -0.25 C 1.597656 -0.507812 1.226562 -0.882812 0.96875 -1.375 C 0.707031 -1.875 0.578125 -2.484375 0.578125 -3.203125 C 0.578125 -3.929688 0.710938 -4.546875 0.984375 -5.046875 C 1.265625 -5.546875 1.640625 -5.921875 2.109375 -6.171875 C 2.578125 -6.421875 3.101562 -6.546875 3.6875 -6.546875 C 4.59375 -6.546875 5.285156 -6.300781 5.765625 -5.8125 C 6.253906 -5.332031 6.5 -4.628906 6.5 -3.703125 C 6.5 -3.367188 6.488281 -3.109375 6.46875 -2.921875 Z M 4.953125 -3.890625 C 4.941406 -4.378906 4.828125 -4.734375 4.609375 -4.953125 C 4.398438 -5.179688 4.09375 -5.296875 3.6875 -5.296875 C 2.875 -5.296875 2.394531 -4.828125 2.25 -3.890625 Z M 4.953125 -3.890625 "
           id="path41" />
      </g>
      <g
         transform="translate(198.585841, 47.525322)"
         id="g43">
        <path
           style="stroke:none"
           d="M 2.671875 0.125 C 2.085938 0.125 1.644531 -0.03125 1.34375 -0.34375 C 1.039062 -0.65625 0.890625 -1.128906 0.890625 -1.765625 L 0.890625 -9 L 2.5 -9 L 2.5 -1.828125 C 2.5 -1.441406 2.660156 -1.25 2.984375 -1.25 C 3.078125 -1.25 3.175781 -1.265625 3.28125 -1.296875 L 3.359375 -1.265625 L 3.515625 -0.03125 C 3.421875 0.0195312 3.300781 0.0546875 3.15625 0.078125 C 3.007812 0.109375 2.847656 0.125 2.671875 0.125 Z M 2.671875 0.125 "
           id="path42" />
      </g>
      <g
         transform="translate(202.276562, 47.525322)"
         id="g44">
        <path
           style="stroke:none"
           d="M 3.734375 0.125 C 3.097656 0.125 2.539062 -0.00390625 2.0625 -0.265625 C 1.59375 -0.523438 1.226562 -0.898438 0.96875 -1.390625 C 0.707031 -1.890625 0.578125 -2.492188 0.578125 -3.203125 C 0.578125 -3.910156 0.707031 -4.515625 0.96875 -5.015625 C 1.226562 -5.515625 1.59375 -5.894531 2.0625 -6.15625 C 2.539062 -6.414062 3.097656 -6.546875 3.734375 -6.546875 C 4.359375 -6.546875 4.90625 -6.414062 5.375 -6.15625 C 5.851562 -5.894531 6.222656 -5.515625 6.484375 -5.015625 C 6.753906 -4.515625 6.890625 -3.910156 6.890625 -3.203125 C 6.890625 -2.492188 6.753906 -1.890625 6.484375 -1.390625 C 6.222656 -0.898438 5.851562 -0.523438 5.375 -0.265625 C 4.90625 -0.00390625 4.359375 0.125 3.734375 0.125 Z M 3.734375 -1.25 C 4.734375 -1.25 5.234375 -1.898438 5.234375 -3.203125 C 5.234375 -3.878906 5.101562 -4.375 4.84375 -4.6875 C 4.582031 -5.007812 4.210938 -5.171875 3.734375 -5.171875 C 2.734375 -5.171875 2.234375 -4.515625 2.234375 -3.203125 C 2.234375 -1.898438 2.734375 -1.25 3.734375 -1.25 Z M 3.734375 -1.25 "
           id="path43" />
      </g>
      <g
         transform="translate(209.739503, 47.525322)"
         id="g45">
        <path
           style="stroke:none"
           d="M 0.921875 0 L 0.921875 -6.421875 L 2.46875 -6.421875 L 2.46875 -5.484375 L 2.59375 -5.453125 C 3 -6.179688 3.648438 -6.546875 4.546875 -6.546875 C 5.285156 -6.546875 5.828125 -6.34375 6.171875 -5.9375 C 6.515625 -5.53125 6.6875 -4.941406 6.6875 -4.171875 L 6.6875 0 L 5.078125 0 L 5.078125 -3.96875 C 5.078125 -4.394531 4.988281 -4.703125 4.8125 -4.890625 C 4.644531 -5.085938 4.375 -5.1875 4 -5.1875 C 3.539062 -5.1875 3.179688 -5.035156 2.921875 -4.734375 C 2.660156 -4.429688 2.53125 -3.960938 2.53125 -3.328125 L 2.53125 0 Z M 0.921875 0 "
           id="path44" />
      </g>
      <g
         transform="translate(217.260657, 47.525322)"
         id="g46">
        <path
           style="stroke:none"
           d="M 3.328125 2.71875 C 2.265625 2.71875 1.484375 2.5625 0.984375 2.25 C 0.484375 1.945312 0.234375 1.515625 0.234375 0.953125 C 0.234375 0.617188 0.335938 0.34375 0.546875 0.125 C 0.765625 -0.0820312 1.078125 -0.222656 1.484375 -0.296875 L 1.484375 -0.421875 C 1.265625 -0.554688 1.109375 -0.703125 1.015625 -0.859375 C 0.921875 -1.023438 0.875 -1.210938 0.875 -1.421875 C 0.875 -1.941406 1.207031 -2.289062 1.875 -2.46875 L 1.875 -2.59375 C 1.53125 -2.789062 1.269531 -3.035156 1.09375 -3.328125 C 0.914062 -3.617188 0.828125 -3.972656 0.828125 -4.390625 C 0.828125 -4.816406 0.925781 -5.191406 1.125 -5.515625 C 1.320312 -5.835938 1.609375 -6.085938 1.984375 -6.265625 C 2.367188 -6.453125 2.820312 -6.546875 3.34375 -6.546875 C 3.882812 -6.546875 4.3125 -6.453125 4.625 -6.265625 C 4.820312 -6.546875 4.9375 -6.878906 4.96875 -7.265625 L 5.09375 -7.328125 L 6.25 -7.046875 C 6.21875 -6.742188 6.128906 -6.488281 5.984375 -6.28125 C 5.835938 -6.070312 5.613281 -5.882812 5.3125 -5.71875 L 5.3125 -5.59375 C 5.675781 -5.269531 5.859375 -4.828125 5.859375 -4.265625 C 5.859375 -3.867188 5.757812 -3.507812 5.5625 -3.1875 C 5.363281 -2.875 5.070312 -2.625 4.6875 -2.4375 C 4.3125 -2.257812 3.863281 -2.171875 3.34375 -2.171875 L 3.109375 -2.1875 C 2.953125 -2.1875 2.84375 -2.1875 2.78125 -2.1875 C 2.632812 -2.1875 2.519531 -2.144531 2.4375 -2.0625 C 2.351562 -1.988281 2.3125 -1.890625 2.3125 -1.765625 C 2.3125 -1.628906 2.363281 -1.523438 2.46875 -1.453125 C 2.570312 -1.378906 2.734375 -1.335938 2.953125 -1.328125 L 4.390625 -1.28125 C 5.804688 -1.226562 6.515625 -0.613281 6.515625 0.5625 C 6.515625 0.976562 6.40625 1.347656 6.1875 1.671875 C 5.976562 1.992188 5.632812 2.25 5.15625 2.4375 C 4.6875 2.625 4.078125 2.71875 3.328125 2.71875 Z M 3.34375 -3.3125 C 3.65625 -3.3125 3.898438 -3.398438 4.078125 -3.578125 C 4.253906 -3.765625 4.34375 -4.023438 4.34375 -4.359375 C 4.34375 -4.691406 4.253906 -4.945312 4.078125 -5.125 C 3.898438 -5.3125 3.65625 -5.40625 3.34375 -5.40625 C 3.03125 -5.40625 2.785156 -5.3125 2.609375 -5.125 C 2.441406 -4.945312 2.359375 -4.691406 2.359375 -4.359375 C 2.359375 -4.015625 2.441406 -3.753906 2.609375 -3.578125 C 2.785156 -3.398438 3.03125 -3.3125 3.34375 -3.3125 Z M 3.328125 1.546875 C 3.878906 1.546875 4.28125 1.46875 4.53125 1.3125 C 4.78125 1.164062 4.90625 0.96875 4.90625 0.71875 C 4.90625 0.507812 4.835938 0.359375 4.703125 0.265625 C 4.578125 0.171875 4.378906 0.117188 4.109375 0.109375 L 2.828125 0.0625 C 2.785156 0.0625 2.742188 0.0546875 2.703125 0.046875 C 2.671875 0.046875 2.640625 0.046875 2.609375 0.046875 C 2.335938 0.046875 2.128906 0.101562 1.984375 0.21875 C 1.847656 0.332031 1.78125 0.492188 1.78125 0.703125 C 1.78125 0.972656 1.910156 1.179688 2.171875 1.328125 C 2.429688 1.472656 2.816406 1.546875 3.328125 1.546875 Z M 3.328125 1.546875 "
           id="path45" />
      </g>
      <g
         transform="translate(223.937719, 47.525322)"
         id="g47">
        <path
           style="stroke:none"
           d="M 3 0.125 C 2.5625 0.125 2.160156 0.0703125 1.796875 -0.03125 C 1.429688 -0.132812 1.117188 -0.273438 0.859375 -0.453125 C 0.609375 -0.640625 0.421875 -0.847656 0.296875 -1.078125 L 1.1875 -2.046875 L 1.3125 -2.046875 C 1.519531 -1.753906 1.769531 -1.535156 2.0625 -1.390625 C 2.351562 -1.253906 2.671875 -1.1875 3.015625 -1.1875 C 3.328125 -1.1875 3.5625 -1.238281 3.71875 -1.34375 C 3.882812 -1.457031 3.96875 -1.617188 3.96875 -1.828125 C 3.96875 -1.992188 3.910156 -2.128906 3.796875 -2.234375 C 3.679688 -2.347656 3.492188 -2.4375 3.234375 -2.5 L 2.390625 -2.703125 C 1.753906 -2.859375 1.285156 -3.09375 0.984375 -3.40625 C 0.691406 -3.71875 0.546875 -4.113281 0.546875 -4.59375 C 0.546875 -4.988281 0.648438 -5.332031 0.859375 -5.625 C 1.066406 -5.925781 1.351562 -6.15625 1.71875 -6.3125 C 2.09375 -6.46875 2.523438 -6.546875 3.015625 -6.546875 C 3.585938 -6.546875 4.066406 -6.460938 4.453125 -6.296875 C 4.835938 -6.128906 5.132812 -5.90625 5.34375 -5.625 L 4.484375 -4.6875 L 4.359375 -4.6875 C 4.179688 -4.894531 3.976562 -5.046875 3.75 -5.140625 C 3.53125 -5.234375 3.285156 -5.28125 3.015625 -5.28125 C 2.378906 -5.28125 2.0625 -5.082031 2.0625 -4.6875 C 2.0625 -4.519531 2.117188 -4.378906 2.234375 -4.265625 C 2.359375 -4.160156 2.566406 -4.078125 2.859375 -4.015625 L 3.65625 -3.84375 C 4.3125 -3.695312 4.785156 -3.46875 5.078125 -3.15625 C 5.378906 -2.851562 5.53125 -2.441406 5.53125 -1.921875 C 5.53125 -1.515625 5.429688 -1.15625 5.234375 -0.84375 C 5.035156 -0.539062 4.742188 -0.300781 4.359375 -0.125 C 3.984375 0.0390625 3.53125 0.125 3 0.125 Z M 3 0.125 "
           id="path46" />
      </g>
    </g>
    <g
       style="fill:#0d1b2a;fill-opacity:1"
       id="g50">
      <g
         transform="translate(58.105835, 36.348396)"
         id="g49"
         style="fill:#0d1b2a;fill-opacity:1">
        <path
           style="stroke:none;fill:#0d1b2a;fill-opacity:1"
           d="M 2.765625 0 L 2.765625 -21.28125 L 11.84375 -21.28125 C 13.15625 -21.28125 14.265625 -21.070312 15.171875 -20.65625 C 16.078125 -20.25 16.765625 -19.664062 17.234375 -18.90625 C 17.703125 -18.144531 17.9375 -17.242188 17.9375 -16.203125 C 17.9375 -15.265625 17.707031 -14.4375 17.25 -13.71875 C 16.789062 -13 16.132812 -12.421875 15.28125 -11.984375 L 15.28125 -11.671875 C 16.625 -11.328125 17.660156 -10.691406 18.390625 -9.765625 C 19.117188 -8.847656 19.484375 -7.71875 19.484375 -6.375 C 19.484375 -4.332031 18.867188 -2.757812 17.640625 -1.65625 C 16.410156 -0.550781 14.585938 0 12.171875 0 Z M 10.96875 -12.796875 C 12.9375 -12.796875 13.921875 -13.675781 13.921875 -15.4375 C 13.921875 -16.34375 13.675781 -17.015625 13.1875 -17.453125 C 12.695312 -17.898438 11.957031 -18.125 10.96875 -18.125 L 6.96875 -18.125 L 6.96875 -12.796875 Z M 11.75 -3.328125 C 14.0625 -3.328125 15.21875 -4.382812 15.21875 -6.5 C 15.21875 -8.613281 14.0625 -9.671875 11.75 -9.671875 L 6.96875 -9.671875 L 6.96875 -3.328125 Z M 11.75 -3.328125 "
           id="path48" />
      </g>
    </g>
    <g
       style="fill:#0d1b2a;fill-opacity:1"
       id="g52">
      <g
         transform="translate(79.364149, 36.348396)"
         id="g51"
         style="fill:#0d1b2a;fill-opacity:1">
        <path
           style="stroke:none;fill:#0d1b2a;fill-opacity:1"
           d="M 4.328125 -17.984375 C 3.597656 -17.984375 3.003906 -18.203125 2.546875 -18.640625 C 2.085938 -19.078125 1.859375 -19.644531 1.859375 -20.34375 C 1.859375 -21.039062 2.085938 -21.609375 2.546875 -22.046875 C 3.003906 -22.484375 3.597656 -22.703125 4.328125 -22.703125 C 4.804688 -22.703125 5.234375 -22.597656 5.609375 -22.390625 C 5.992188 -22.191406 6.289062 -21.914062 6.5 -21.5625 C 6.707031 -21.207031 6.8125 -20.800781 6.8125 -20.34375 C 6.8125 -19.894531 6.707031 -19.488281 6.5 -19.125 C 6.289062 -18.769531 5.992188 -18.488281 5.609375 -18.28125 C 5.234375 -18.082031 4.804688 -17.984375 4.328125 -17.984375 Z M 2.3125 0 L 2.3125 -16.0625 L 6.34375 -16.0625 L 6.34375 0 Z M 2.3125 0 "
           id="path50" />
      </g>
    </g>
    <g
       style="fill:#0d1b2a;fill-opacity:1"
       id="g54">
      <g
         transform="translate(88.45589, 36.348396)"
         id="g53"
         style="fill:#0d1b2a;fill-opacity:1">
        <path
           style="stroke:none;fill:#0d1b2a;fill-opacity:1"
           d="M 2.3125 0 L 2.3125 -22.5 L 6.34375 -22.5 L 6.34375 -10.015625 L 6.734375 -10.015625 L 11.390625 -16.0625 L 15.46875 -16.0625 L 15.46875 -15.71875 L 10.015625 -8.671875 L 16.078125 -0.359375 L 16.078125 0 L 11.828125 0 L 6.734375 -6.765625 L 6.34375 -6.765625 L 6.34375 0 Z M 2.3125 0 "
           id="path52" />
      </g>
    </g>
    <g
       style="fill:#0d1b2a;fill-opacity:1"
       id="g56">
      <g
         transform="translate(104.766076, 36.348396)"
         id="g55"
         style="fill:#0d1b2a;fill-opacity:1">
        <path
           style="stroke:none;fill:#0d1b2a;fill-opacity:1"
           d="M 15.859375 -7.125 L 5.546875 -7.125 C 5.660156 -5.71875 6.054688 -4.695312 6.734375 -4.0625 C 7.421875 -3.425781 8.347656 -3.109375 9.515625 -3.109375 C 10.441406 -3.109375 11.191406 -3.28125 11.765625 -3.625 C 12.335938 -3.976562 12.796875 -4.503906 13.140625 -5.203125 L 13.453125 -5.203125 L 16.125 -3.484375 C 15.601562 -2.359375 14.8125 -1.441406 13.75 -0.734375 C 12.695312 -0.0351562 11.285156 0.3125 9.515625 0.3125 C 7.859375 0.3125 6.425781 -0.00390625 5.21875 -0.640625 C 4.007812 -1.273438 3.078125 -2.210938 2.421875 -3.453125 C 1.765625 -4.703125 1.4375 -6.222656 1.4375 -8.015625 C 1.4375 -9.835938 1.78125 -11.375 2.46875 -12.625 C 3.164062 -13.882812 4.097656 -14.820312 5.265625 -15.4375 C 6.441406 -16.050781 7.765625 -16.359375 9.234375 -16.359375 C 11.503906 -16.359375 13.242188 -15.753906 14.453125 -14.546875 C 15.660156 -13.347656 16.265625 -11.585938 16.265625 -9.265625 C 16.265625 -8.410156 16.234375 -7.753906 16.171875 -7.296875 Z M 12.40625 -9.71875 C 12.363281 -10.945312 12.078125 -11.835938 11.546875 -12.390625 C 11.015625 -12.953125 10.242188 -13.234375 9.234375 -13.234375 C 7.191406 -13.234375 5.992188 -12.0625 5.640625 -9.71875 Z M 12.40625 -9.71875 "
           id="path54" />
      </g>
    </g>
    <g
       style="fill:#0d1b2a;fill-opacity:1"
       id="g58">
      <g
         transform="translate(122.662574, 36.348396)"
         id="g57"
         style="fill:#0d1b2a;fill-opacity:1">
        <path
           style="stroke:none;fill:#0d1b2a;fill-opacity:1"
           d="M 2.3125 0 L 2.3125 -16.0625 L 6.234375 -16.0625 L 6.234375 -13.671875 L 6.53125 -13.609375 C 6.925781 -14.503906 7.4375 -15.160156 8.0625 -15.578125 C 8.695312 -15.992188 9.460938 -16.203125 10.359375 -16.203125 C 11.273438 -16.203125 11.972656 -16.046875 12.453125 -15.734375 L 11.765625 -12.25 L 11.453125 -12.203125 C 11.191406 -12.304688 10.9375 -12.378906 10.6875 -12.421875 C 10.445312 -12.472656 10.15625 -12.5 9.8125 -12.5 C 8.6875 -12.5 7.828125 -12.101562 7.234375 -11.3125 C 6.640625 -10.519531 6.34375 -9.253906 6.34375 -7.515625 L 6.34375 0 Z M 2.3125 0 "
           id="path56" />
      </g>
    </g>
    <g
       style="fill:#0d1b2a;fill-opacity:1"
       id="g60">
      <g
         transform="translate(135.698264, 36.348396)"
         id="g59"
         style="fill:#0d1b2a;fill-opacity:1">
        <path
           style="stroke:none;fill:#0d1b2a;fill-opacity:1"
           d="M 10.15625 0 L 5.453125 0 L 0.578125 -21.28125 L 4.78125 -21.28125 L 7.984375 -6.3125 L 8.359375 -6.3125 L 12.171875 -21.28125 L 15.765625 -21.28125 L 19.65625 -6.3125 L 20.015625 -6.3125 L 23.25 -21.28125 L 27.296875 -21.28125 L 22.4375 0 L 17.71875 0 L 13.984375 -13.734375 L 13.6875 -13.734375 Z M 10.15625 0 "
           id="path58" />
      </g>
    </g>
    <g
       clip-rule="nonzero"
       clip-path="url(#e52869c1f2)"
       id="g61">
      <path
         style=" stroke:none;fill-rule:nonzero;fill:#2c6c8c;fill-opacity:1;"
         d="M 172.335938 34.097656 C 169.277344 34.097656 166.789062 31.609375 166.789062 28.550781 C 166.789062 25.492188 169.277344 23.003906 172.335938 23.003906 C 175.394531 23.003906 177.882812 25.492188 177.882812 28.550781 C 177.882812 31.609375 175.394531 34.097656 172.335938 34.097656 Z M 178.941406 28.550781 C 178.941406 28.390625 178.929688 28.230469 178.921875 28.070312 L 180.160156 27.300781 C 180.074219 26.753906 179.929688 26.226562 179.738281 25.726562 L 178.28125 25.675781 C 178.140625 25.386719 177.980469 25.105469 177.796875 24.839844 L 178.484375 23.558594 C 178.140625 23.136719 177.753906 22.75 177.328125 22.40625 L 176.046875 23.089844 C 175.78125 22.910156 175.503906 22.746094 175.210938 22.605469 L 175.164062 21.152344 C 174.660156 20.957031 174.132812 20.816406 173.589844 20.726562 L 172.816406 21.96875 C 172.65625 21.957031 172.496094 21.949219 172.335938 21.949219 C 172.175781 21.949219 172.015625 21.957031 171.855469 21.96875 L 171.082031 20.726562 C 170.539062 20.816406 170.011719 20.957031 169.507812 21.152344 L 169.460938 22.605469 C 169.167969 22.746094 168.890625 22.910156 168.625 23.089844 L 167.34375 22.40625 C 166.921875 22.75 166.53125 23.136719 166.1875 23.558594 L 166.875 24.839844 C 166.691406 25.105469 166.53125 25.386719 166.390625 25.675781 L 164.933594 25.726562 C 164.742188 26.226562 164.597656 26.753906 164.511719 27.300781 L 165.753906 28.070312 C 165.742188 28.230469 165.734375 28.390625 165.734375 28.550781 C 165.734375 28.714844 165.742188 28.875 165.753906 29.03125 L 164.511719 29.804688 C 164.597656 30.351562 164.742188 30.875 164.933594 31.378906 L 166.390625 31.425781 C 166.53125 31.71875 166.691406 31.996094 166.875 32.261719 L 166.1875 33.546875 C 166.53125 33.96875 166.921875 34.355469 167.34375 34.699219 L 168.625 34.015625 C 168.890625 34.195312 169.167969 34.355469 169.460938 34.496094 L 169.507812 35.953125 C 170.011719 36.144531 170.539062 36.289062 171.082031 36.375 L 171.855469 35.136719 C 172.015625 35.148438 172.175781 35.15625 172.335938 35.15625 C 172.496094 35.15625 172.65625 35.148438 172.816406 35.136719 L 173.589844 36.375 C 174.132812 36.289062 174.660156 36.144531 175.164062 35.953125 L 175.210938 34.496094 C 175.503906 34.355469 175.78125 34.195312 176.046875 34.015625 L 177.328125 34.699219 C 177.753906 34.355469 178.140625 33.96875 178.484375 33.546875 L 177.796875 32.261719 C 177.980469 31.996094 178.140625 31.71875 178.28125 31.425781 L 179.738281 31.378906 C 179.929688 30.875 180.074219 30.351562 180.160156 29.804688 L 178.921875 29.03125 C 178.929688 28.875 178.941406 28.714844 178.941406 28.550781 "
         id="path60" />
    </g>
    <path
       style=" stroke:none;fill-rule:nonzero;fill:#2c6c8c;fill-opacity:1;"
       d="M 176.671875 27.390625 C 176.75 27.671875 176.582031 27.960938 176.300781 28.035156 C 176.019531 28.113281 175.726562 27.945312 175.652344 27.664062 C 175.578125 27.382812 175.746094 27.09375 176.027344 27.015625 C 176.308594 26.941406 176.597656 27.109375 176.671875 27.390625 Z M 176.671875 29.714844 C 176.597656 29.996094 176.308594 30.164062 176.027344 30.085938 C 175.746094 30.011719 175.578125 29.722656 175.652344 29.441406 C 175.726562 29.160156 176.019531 28.992188 176.300781 29.066406 C 176.582031 29.144531 176.75 29.433594 176.671875 29.714844 Z M 175.511719 31.726562 C 175.304688 31.933594 174.96875 31.933594 174.765625 31.726562 C 174.558594 31.519531 174.558594 31.1875 174.765625 30.980469 C 174.96875 30.773438 175.304688 30.773438 175.511719 30.980469 C 175.71875 31.1875 175.71875 31.519531 175.511719 31.726562 Z M 174.765625 25.378906 C 174.96875 25.171875 175.304688 25.171875 175.511719 25.378906 C 175.71875 25.582031 175.71875 25.917969 175.511719 26.125 C 175.304688 26.332031 174.96875 26.332031 174.765625 26.125 C 174.558594 25.917969 174.558594 25.582031 174.765625 25.378906 Z M 173.871094 24.863281 C 173.796875 25.144531 173.507812 25.3125 173.226562 25.234375 C 172.945312 25.160156 172.777344 24.871094 172.851562 24.589844 C 172.925781 24.308594 173.21875 24.140625 173.5 24.214844 C 173.78125 24.289062 173.945312 24.582031 173.871094 24.863281 Z M 173.5 32.890625 C 173.21875 32.964844 172.925781 32.796875 172.851562 32.515625 C 172.777344 32.234375 172.945312 31.945312 173.226562 31.867188 C 173.507812 31.792969 173.796875 31.960938 173.871094 32.242188 C 173.945312 32.523438 173.78125 32.8125 173.5 32.890625 Z M 171.015625 28.550781 C 171.015625 27.824219 171.609375 27.230469 172.335938 27.230469 C 173.0625 27.230469 173.65625 27.824219 173.65625 28.550781 C 173.65625 29.28125 173.0625 29.871094 172.335938 29.871094 C 171.609375 29.871094 171.015625 29.28125 171.015625 28.550781 Z M 171.820312 32.515625 C 171.746094 32.796875 171.457031 32.964844 171.171875 32.890625 C 170.894531 32.8125 170.726562 32.523438 170.800781 32.242188 C 170.875 31.960938 171.167969 31.792969 171.449219 31.867188 C 171.730469 31.945312 171.894531 32.234375 171.820312 32.515625 Z M 169.90625 31.726562 C 169.703125 31.933594 169.367188 31.933594 169.160156 31.726562 C 168.953125 31.519531 168.953125 31.1875 169.160156 30.980469 C 169.367188 30.773438 169.703125 30.773438 169.90625 30.980469 C 170.113281 31.1875 170.113281 31.519531 169.90625 31.726562 Z M 168.644531 30.089844 C 168.363281 30.164062 168.074219 29.996094 168 29.714844 C 167.921875 29.433594 168.089844 29.144531 168.371094 29.066406 C 168.652344 28.992188 168.945312 29.160156 169.019531 29.441406 C 169.09375 29.722656 168.925781 30.011719 168.644531 30.089844 Z M 168 27.390625 C 168.074219 27.109375 168.363281 26.941406 168.644531 27.015625 C 168.925781 27.09375 169.09375 27.382812 169.019531 27.664062 C 168.945312 27.945312 168.652344 28.113281 168.371094 28.035156 C 168.089844 27.960938 167.921875 27.671875 168 27.390625 Z M 169.160156 25.378906 C 169.367188 25.171875 169.703125 25.171875 169.90625 25.378906 C 170.113281 25.582031 170.113281 25.917969 169.90625 26.125 C 169.703125 26.332031 169.367188 26.332031 169.160156 26.125 C 168.953125 25.917969 168.953125 25.582031 169.160156 25.378906 Z M 171.171875 24.214844 C 171.457031 24.140625 171.746094 24.308594 171.820312 24.589844 C 171.894531 24.871094 171.730469 25.160156 171.449219 25.234375 C 171.167969 25.3125 170.875 25.144531 170.800781 24.863281 C 170.726562 24.582031 170.894531 24.289062 171.171875 24.214844 Z M 172.335938 23.269531 C 169.421875 23.269531 167.054688 25.640625 167.054688 28.550781 C 167.054688 31.464844 169.421875 33.835938 172.335938 33.835938 C 175.25 33.835938 177.617188 31.464844 177.617188 28.550781 C 177.617188 25.640625 175.25 23.269531 172.335938 23.269531 "
       id="path61" />
    <g
       style="fill:#0d1b2a;fill-opacity:1"
       id="g66">
      <g
         transform="translate(181.720416, 36.348396)"
         id="g62"
         style="fill:#0d1b2a;fill-opacity:1">
        <path
           style="stroke:none;fill:#0d1b2a;fill-opacity:1"
           d="M 2.3125 0 L 2.3125 -16.0625 L 6.234375 -16.0625 L 6.234375 -13.671875 L 6.53125 -13.609375 C 6.925781 -14.503906 7.4375 -15.160156 8.0625 -15.578125 C 8.695312 -15.992188 9.460938 -16.203125 10.359375 -16.203125 C 11.273438 -16.203125 11.972656 -16.046875 12.453125 -15.734375 L 11.765625 -12.25 L 11.453125 -12.203125 C 11.191406 -12.304688 10.9375 -12.378906 10.6875 -12.421875 C 10.445312 -12.472656 10.15625 -12.5 9.8125 -12.5 C 8.6875 -12.5 7.828125 -12.101562 7.234375 -11.3125 C 6.640625 -10.519531 6.34375 -9.253906 6.34375 -7.515625 L 6.34375 0 Z M 2.3125 0 "
           id="path62" />
      </g>
      <g
         transform="translate(194.309035, 36.348396)"
         id="g63"
         style="fill:#0d1b2a;fill-opacity:1">
        <path
           style="stroke:none;fill:#0d1b2a;fill-opacity:1"
           d="M 6.671875 0.3125 C 5.222656 0.3125 4.117188 -0.078125 3.359375 -0.859375 C 2.597656 -1.640625 2.21875 -2.828125 2.21875 -4.421875 L 2.21875 -22.5 L 6.25 -22.5 L 6.25 -4.578125 C 6.25 -3.597656 6.65625 -3.109375 7.46875 -3.109375 C 7.695312 -3.109375 7.941406 -3.148438 8.203125 -3.234375 L 8.40625 -3.171875 L 8.78125 -0.078125 C 8.550781 0.046875 8.253906 0.140625 7.890625 0.203125 C 7.523438 0.273438 7.117188 0.3125 6.671875 0.3125 Z M 6.671875 0.3125 "
           id="path63" />
      </g>
      <g
         transform="translate(203.535838, 36.348396)"
         id="g64"
         style="fill:#0d1b2a;fill-opacity:1">
        <path
           style="stroke:none;fill:#0d1b2a;fill-opacity:1"
           d="M 7.9375 0.3125 C 6.664062 0.3125 5.539062 0.00390625 4.5625 -0.609375 C 3.582031 -1.234375 2.816406 -2.164062 2.265625 -3.40625 C 1.710938 -4.65625 1.4375 -6.191406 1.4375 -8.015625 C 1.4375 -9.847656 1.71875 -11.390625 2.28125 -12.640625 C 2.851562 -13.890625 3.640625 -14.820312 4.640625 -15.4375 C 5.648438 -16.050781 6.816406 -16.359375 8.140625 -16.359375 C 9.140625 -16.359375 10.003906 -16.1875 10.734375 -15.84375 C 11.460938 -15.5 12.082031 -14.960938 12.59375 -14.234375 L 12.890625 -14.3125 L 12.890625 -22.5 L 16.921875 -22.5 L 16.921875 0 L 12.890625 0 L 12.890625 -2.078125 L 12.59375 -2.140625 C 12.144531 -1.378906 11.53125 -0.78125 10.75 -0.34375 C 9.976562 0.09375 9.039062 0.3125 7.9375 0.3125 Z M 9.25 -3.109375 C 10.382812 -3.109375 11.28125 -3.515625 11.9375 -4.328125 C 12.59375 -5.140625 12.921875 -6.367188 12.921875 -8.015625 C 12.921875 -9.671875 12.59375 -10.90625 11.9375 -11.71875 C 11.28125 -12.53125 10.382812 -12.9375 9.25 -12.9375 C 8.0625 -12.9375 7.15625 -12.539062 6.53125 -11.75 C 5.90625 -10.957031 5.59375 -9.710938 5.59375 -8.015625 C 5.59375 -6.328125 5.90625 -5.085938 6.53125 -4.296875 C 7.15625 -3.503906 8.0625 -3.109375 9.25 -3.109375 Z M 9.25 -3.109375 "
           id="path64" />
      </g>
      <g
         transform="translate(222.775322, 36.348396)"
         id="g65"
         style="fill:#0d1b2a;fill-opacity:1">
        <path
           style="stroke:none;fill:#0d1b2a;fill-opacity:1"
           d="M 2.765625 0 L 2.765625 -21.28125 L 6.96875 -21.28125 L 6.96875 -12.59375 L 7.4375 -12.59375 L 14.546875 -21.28125 L 18.84375 -21.28125 L 18.84375 -20.921875 L 11.015625 -11.234375 L 19.671875 -0.359375 L 19.671875 0 L 14.90625 0 L 7.4375 -9.1875 L 6.96875 -9.1875 L 6.96875 0 Z M 2.765625 0 "
           id="path65" />
      </g>
    </g>
    <g
       style="fill:#0d1b2a;fill-opacity:1"
       id="g69">
      <g
         transform="translate(242.014808, 36.348396)"
         id="g67"
         style="fill:#0d1b2a;fill-opacity:1">
        <path
           style="stroke:none;fill:#0d1b2a;fill-opacity:1"
           d="M 15.859375 -7.125 L 5.546875 -7.125 C 5.660156 -5.71875 6.054688 -4.695312 6.734375 -4.0625 C 7.421875 -3.425781 8.347656 -3.109375 9.515625 -3.109375 C 10.441406 -3.109375 11.191406 -3.28125 11.765625 -3.625 C 12.335938 -3.976562 12.796875 -4.503906 13.140625 -5.203125 L 13.453125 -5.203125 L 16.125 -3.484375 C 15.601562 -2.359375 14.8125 -1.441406 13.75 -0.734375 C 12.695312 -0.0351562 11.285156 0.3125 9.515625 0.3125 C 7.859375 0.3125 6.425781 -0.00390625 5.21875 -0.640625 C 4.007812 -1.273438 3.078125 -2.210938 2.421875 -3.453125 C 1.765625 -4.703125 1.4375 -6.222656 1.4375 -8.015625 C 1.4375 -9.835938 1.78125 -11.375 2.46875 -12.625 C 3.164062 -13.882812 4.097656 -14.820312 5.265625 -15.4375 C 6.441406 -16.050781 7.765625 -16.359375 9.234375 -16.359375 C 11.503906 -16.359375 13.242188 -15.753906 14.453125 -14.546875 C 15.660156 -13.347656 16.265625 -11.585938 16.265625 -9.265625 C 16.265625 -8.410156 16.234375 -7.753906 16.171875 -7.296875 Z M 12.40625 -9.71875 C 12.363281 -10.945312 12.078125 -11.835938 11.546875 -12.390625 C 11.015625 -12.953125 10.242188 -13.234375 9.234375 -13.234375 C 7.191406 -13.234375 5.992188 -12.0625 5.640625 -9.71875 Z M 12.40625 -9.71875 "
           id="path66" />
      </g>
      <g
         transform="translate(259.464234, 36.348396)"
         id="g68"
         style="fill:#0d1b2a;fill-opacity:1">
        <path
           style="stroke:none;fill:#0d1b2a;fill-opacity:1"
           d="M 2.3125 0 L 2.3125 -16.0625 L 6.1875 -16.0625 L 6.1875 -13.703125 L 6.5 -13.625 C 7.488281 -15.445312 9.109375 -16.359375 11.359375 -16.359375 C 13.210938 -16.359375 14.570312 -15.851562 15.4375 -14.84375 C 16.300781 -13.832031 16.734375 -12.363281 16.734375 -10.4375 L 16.734375 0 L 12.703125 0 L 12.703125 -9.9375 C 12.703125 -11.007812 12.488281 -11.78125 12.0625 -12.25 C 11.632812 -12.71875 10.953125 -12.953125 10.015625 -12.953125 C 8.859375 -12.953125 7.957031 -12.578125 7.3125 -11.828125 C 6.664062 -11.085938 6.34375 -9.914062 6.34375 -8.3125 L 6.34375 0 Z M 2.3125 0 "
           id="path67" />
      </g>
    </g>
    <g
       style="fill:#0d1b2a;fill-opacity:1"
       id="g71">
      <g
         transform="translate(278.077927, 36.348396)"
         id="g70"
         style="fill:#0d1b2a;fill-opacity:1">
        <path
           style="stroke:none;fill:#0d1b2a;fill-opacity:1"
           d="M 3.546875 6.8125 C 2.859375 6.8125 2.234375 6.757812 1.671875 6.65625 C 1.117188 6.550781 0.664062 6.410156 0.3125 6.234375 L 0.953125 2.96875 L 1.21875 2.875 C 1.46875 3.007812 1.769531 3.113281 2.125 3.1875 C 2.476562 3.257812 2.847656 3.296875 3.234375 3.296875 C 3.878906 3.296875 4.414062 3.210938 4.84375 3.046875 C 5.28125 2.878906 5.648438 2.597656 5.953125 2.203125 C 6.253906 1.804688 6.519531 1.257812 6.75 0.5625 L 0.34375 -16.0625 L 4.578125 -16.0625 L 8.5625 -4.890625 L 8.90625 -4.890625 L 12.796875 -16.0625 L 16.90625 -16.0625 L 10.453125 1 C 9.941406 2.382812 9.375 3.492188 8.75 4.328125 C 8.132812 5.171875 7.40625 5.796875 6.5625 6.203125 C 5.726562 6.609375 4.722656 6.8125 3.546875 6.8125 Z M 3.546875 6.8125 "
           id="path69" />
      </g>
    </g>
    <g
       style="fill:#0d1b2a;fill-opacity:1"
       id="g73">
      <g
         transform="translate(295.003434, 36.348396)"
         id="g72"
         style="fill:#0d1b2a;fill-opacity:1">
        <path
           style="stroke:none;fill:#0d1b2a;fill-opacity:1"
           d="M 6.265625 0.3125 C 5.234375 0.3125 4.335938 0.125 3.578125 -0.25 C 2.828125 -0.632812 2.242188 -1.191406 1.828125 -1.921875 C 1.421875 -2.660156 1.21875 -3.546875 1.21875 -4.578125 C 1.21875 -5.523438 1.421875 -6.320312 1.828125 -6.96875 C 2.242188 -7.613281 2.875 -8.140625 3.71875 -8.546875 C 4.570312 -8.960938 5.691406 -9.28125 7.078125 -9.5 C 8.035156 -9.65625 8.765625 -9.828125 9.265625 -10.015625 C 9.765625 -10.203125 10.101562 -10.410156 10.28125 -10.640625 C 10.457031 -10.867188 10.546875 -11.164062 10.546875 -11.53125 C 10.546875 -12.039062 10.363281 -12.429688 10 -12.703125 C 9.644531 -12.972656 9.046875 -13.109375 8.203125 -13.109375 C 7.316406 -13.109375 6.46875 -12.910156 5.65625 -12.515625 C 4.851562 -12.117188 4.15625 -11.597656 3.5625 -10.953125 L 3.28125 -10.953125 L 1.59375 -13.5 C 2.40625 -14.394531 3.394531 -15.09375 4.5625 -15.59375 C 5.738281 -16.101562 7.019531 -16.359375 8.40625 -16.359375 C 10.539062 -16.359375 12.082031 -15.90625 13.03125 -15 C 13.976562 -14.101562 14.453125 -12.828125 14.453125 -11.171875 L 14.453125 -4.1875 C 14.453125 -3.46875 14.769531 -3.109375 15.40625 -3.109375 C 15.644531 -3.109375 15.878906 -3.15625 16.109375 -3.25 L 16.3125 -3.1875 L 16.609375 -0.375 C 16.390625 -0.226562 16.078125 -0.109375 15.671875 -0.015625 C 15.273438 0.0664062 14.84375 0.109375 14.375 0.109375 C 13.40625 0.109375 12.648438 -0.0703125 12.109375 -0.4375 C 11.578125 -0.800781 11.195312 -1.378906 10.96875 -2.171875 L 10.65625 -2.203125 C 9.863281 -0.523438 8.398438 0.3125 6.265625 0.3125 Z M 7.546875 -2.703125 C 8.472656 -2.703125 9.210938 -3.015625 9.765625 -3.640625 C 10.328125 -4.265625 10.609375 -5.140625 10.609375 -6.265625 L 10.609375 -7.890625 L 10.328125 -7.953125 C 10.085938 -7.753906 9.769531 -7.585938 9.375 -7.453125 C 8.988281 -7.328125 8.425781 -7.203125 7.6875 -7.078125 C 6.8125 -6.929688 6.179688 -6.679688 5.796875 -6.328125 C 5.410156 -5.972656 5.21875 -5.46875 5.21875 -4.8125 C 5.21875 -4.125 5.421875 -3.597656 5.828125 -3.234375 C 6.242188 -2.878906 6.816406 -2.703125 7.546875 -2.703125 Z M 7.546875 -2.703125 "
           id="path71" />
      </g>
    </g>
  </g>
</svg>
